<svg width="80" height="81" viewBox="0 0 80 81" fill="none" xmlns="http://www.w3.org/2000/svg">
<circle cx="40" cy="40.9453" r="40" fill="#1EB17B"/>
<mask id="mask0_565_11183" style="mask-type:alpha" maskUnits="userSpaceOnUse" x="10" y="10" width="60" height="61">
<rect x="10" y="10.9453" width="60" height="60" fill="#D9D9D9"/>
</mask>
<g mask="url(#mask0_565_11183)">
<path d="M37.3749 38.0361L35.1924 35.8536C34.8203 35.4819 34.3851 35.2919 33.8868 35.2836C33.3884 35.2757 32.9453 35.4657 32.5574 35.8536C32.1699 36.2415 31.9761 36.6869 31.9761 37.1898C31.9761 37.6932 32.1699 38.1388 32.5574 38.5267L35.793 41.8004C36.2451 42.2525 36.7724 42.4786 37.3749 42.4786C37.9774 42.4786 38.5047 42.2525 38.9568 41.8004L47.5674 33.1898C47.939 32.8182 48.1288 32.3767 48.1368 31.8654C48.1447 31.3542 47.9549 30.9046 47.5674 30.5167C47.1795 30.1292 46.7338 29.9354 46.2305 29.9354C45.7276 29.9354 45.2822 30.1292 44.8943 30.5167L37.3749 38.0361ZM39.9999 59.7286C44.8907 55.3502 48.6334 51.1507 51.228 47.1298C53.8226 43.109 55.1199 39.5873 55.1199 36.5648C55.1199 32.0073 53.672 28.2607 50.7761 25.3248C47.8803 22.389 44.2882 20.9211 39.9999 20.9211C35.7115 20.9211 32.1195 22.389 29.2236 25.3248C26.3278 28.2607 24.8799 32.0073 24.8799 36.5648C24.8799 39.5873 26.1772 43.109 28.7718 47.1298C31.3663 51.1507 35.109 55.3502 39.9999 59.7286ZM39.9999 63.2954C39.5128 63.2954 39.0257 63.2115 38.5386 63.0436C38.0511 62.8752 37.6103 62.6148 37.2161 62.2623C34.9728 60.1948 32.8734 58.0657 30.918 55.8748C28.963 53.6844 27.2636 51.4946 25.8199 49.3055C24.3757 47.1163 23.233 44.9465 22.3918 42.7961C21.5505 40.6452 21.1299 38.5682 21.1299 36.5648C21.1299 30.7957 22.9959 26.125 26.728 22.5529C30.4605 18.9809 34.8845 17.1948 39.9999 17.1948C45.1153 17.1948 49.5393 18.9809 53.2718 22.5529C57.0038 26.125 58.8699 30.7957 58.8699 36.5648C58.8699 38.5682 58.4493 40.6411 57.608 42.7836C56.7668 44.9265 55.6282 47.0965 54.1924 49.2936C52.7561 51.4907 51.0605 53.6805 49.1055 55.8629C47.1505 58.0459 45.0511 60.1709 42.8074 62.2379C42.4132 62.5905 41.9686 62.8548 41.4736 63.0311C40.9782 63.2073 40.487 63.2954 39.9999 63.2954Z" fill="white"/>
</g>
</svg>
