<svg width="20" height="20" viewBox="0 0 20 20" fill="none" xmlns="http://www.w3.org/2000/svg">
<mask id="mask0_1643_4752" style="mask-type:alpha" maskUnits="userSpaceOnUse" x="0" y="0" width="20" height="20">
<rect width="20" height="20" fill="#D9D9D9"/>
</mask>
<g mask="url(#mask0_1643_4752)">
<path d="M16.4881 9.77521C16.3207 9.77521 16.1725 9.71535 16.0435 9.59563C15.9143 9.47576 15.8395 9.32729 15.8189 9.15021C15.6384 7.80507 15.0718 6.65632 14.1193 5.70396C13.1668 4.75146 12.0181 4.18493 10.6731 4.00438C10.496 3.98354 10.3475 3.91063 10.2277 3.78563C10.1079 3.66063 10.0481 3.50958 10.0481 3.3325C10.0481 3.15542 10.11 3.00708 10.2339 2.8875C10.3578 2.76778 10.5042 2.71917 10.6731 2.74167C12.3696 2.92542 13.8159 3.61528 15.012 4.81125C16.208 6.00736 16.8979 7.45368 17.0816 9.15021C17.1041 9.31896 17.0552 9.46535 16.935 9.58938C16.8147 9.71326 16.6657 9.77521 16.4881 9.77521ZM13.0402 9.77521C12.9043 9.77521 12.7841 9.72875 12.6795 9.63583C12.5748 9.54292 12.4963 9.41896 12.4439 9.26396C12.3167 8.81313 12.0835 8.41542 11.7443 8.07083C11.4052 7.72625 11.0102 7.49313 10.5593 7.37146C10.4043 7.3191 10.2804 7.24069 10.1875 7.13625C10.0945 7.03181 10.0481 6.90646 10.0481 6.76021C10.0481 6.55118 10.1199 6.38257 10.2635 6.25438C10.4073 6.12618 10.5704 6.08451 10.7531 6.12938C11.4828 6.29882 12.1116 6.64757 12.6393 7.17563C13.1671 7.70354 13.5186 8.335 13.6939 9.07C13.7388 9.25278 13.6933 9.41597 13.5575 9.55958C13.4216 9.70333 13.2492 9.77521 13.0402 9.77521ZM16.2002 17.0829C14.6298 17.0829 13.052 16.7178 11.467 15.9875C9.88218 15.2572 8.426 14.2271 7.0985 12.8971C5.77114 11.5669 4.74232 10.1107 4.01204 8.52833C3.28176 6.94611 2.91663 5.36979 2.91663 3.79938C2.91663 3.54702 2.99996 3.33674 3.16663 3.16854C3.33329 3.00035 3.54163 2.91625 3.79163 2.91625H6.50954C6.71996 2.91625 6.90558 2.98493 7.06642 3.12229C7.22725 3.25952 7.32954 3.4291 7.37329 3.63104L7.851 6.08292C7.88406 6.31042 7.87711 6.5059 7.83017 6.66938C7.78308 6.83285 7.69864 6.97014 7.57684 7.08125L5.65225 8.95479C5.96197 9.52201 6.31586 10.0586 6.71392 10.5646C7.11183 11.0704 7.54267 11.5535 8.00642 12.014C8.46364 12.4713 8.94975 12.896 9.46475 13.2881C9.97975 13.6802 10.5359 14.0451 11.1331 14.3827L13.0031 12.4965C13.1335 12.3608 13.2914 12.2656 13.4768 12.211C13.6621 12.1566 13.8547 12.1433 14.0545 12.171L16.3685 12.6423C16.5789 12.6978 16.7507 12.8052 16.8837 12.9644C17.0168 13.1235 17.0833 13.3041 17.0833 13.506V16.2079C17.0833 16.4579 16.9992 16.6663 16.831 16.8329C16.6628 16.9996 16.4525 17.0829 16.2002 17.0829ZM5.06079 7.77208L6.54808 6.34896C6.57475 6.32757 6.59211 6.29819 6.60017 6.26083C6.60822 6.22347 6.6069 6.18875 6.59621 6.15667L6.23392 4.29438C6.22322 4.25174 6.20454 4.21972 6.17788 4.19833C6.15121 4.17694 6.11649 4.16625 6.07371 4.16625H4.29163C4.25954 4.16625 4.23281 4.17694 4.21142 4.19833C4.19017 4.21972 4.17954 4.24646 4.17954 4.27854C4.22218 4.84799 4.31538 5.42646 4.45913 6.01396C4.60274 6.6016 4.80329 7.18764 5.06079 7.77208ZM12.3108 14.974C12.8632 15.2315 13.4393 15.4283 14.0391 15.5646C14.6391 15.7007 15.1998 15.7816 15.721 15.8073C15.7531 15.8073 15.7798 15.7966 15.8012 15.7752C15.8226 15.7538 15.8333 15.7271 15.8333 15.695V13.9419C15.8333 13.8991 15.8226 13.8644 15.8012 13.8377C15.7798 13.811 15.7478 13.7924 15.7052 13.7817L13.9552 13.4258C13.9231 13.4151 13.895 13.4138 13.871 13.4219C13.847 13.4299 13.8216 13.4473 13.7948 13.474L12.3108 14.974Z" fill="#1EB17B"/>
</g>
</svg>
