<svg width="128" height="128" viewBox="0 0 128 128" fill="none" xmlns="http://www.w3.org/2000/svg">
<circle cx="64" cy="64" r="62.4" fill="url(#paint0_linear_146_2276)" stroke="#D8D8D8" stroke-width="3.2"/>
<mask id="mask0_146_2276" style="mask-type:alpha" maskUnits="userSpaceOnUse" x="0" y="0" width="128" height="128">
<circle cx="64" cy="64" r="64" fill="#D9D9D9"/>
</mask>
<g mask="url(#mask0_146_2276)">
<path d="M16.2007 78.8287L-18.4001 122.618C34.6783 133.814 113.583 127.283 146.4 122.618C134.628 119.909 110.015 84.2459 105.022 72.96C101.026 63.9312 94.558 61.975 91.8232 62.1254C88.8507 61.975 81.4787 60.5003 75.7713 55.8053C70.0639 51.1104 58.1736 52.9462 52.9418 54.451C49.018 56.5577 39.9576 60.1391 35.1063 57.6111C30.2551 55.083 20.4812 70.7028 16.2007 78.8287Z" fill="url(#paint1_linear_146_2276)"/>
<path fill-rule="evenodd" clip-rule="evenodd" d="M18.5394 72.6589C20.221 74.0979 23.1874 75.1527 28.1124 74.4811C36.7346 73.3051 38.4265 76.9309 38.1948 78.8908C39.7013 82.4431 45.0786 87.4163 54.5352 78.8908C56.3895 76.4409 62.1839 72.7172 70.528 77.4209C72.9617 79.5032 79.7065 82.0511 87.2161 75.5835C87.4387 75.3918 87.6641 75.1104 87.9231 74.7871C88.9204 73.5422 90.416 71.6753 94.1695 71.9087C98.3691 72.1698 102.393 71.3178 104.62 69.8798C104.488 69.6465 104.365 69.4232 104.252 69.2105C100.358 61.8609 94.0536 60.2685 91.3882 60.391C88.4909 60.2685 81.3058 59.0681 75.7431 55.2464C70.1803 51.4246 58.5914 52.919 53.4922 54.1439C49.6679 55.8588 40.837 58.7741 36.1087 56.7163C31.6807 54.7891 23.045 65.8176 18.5394 72.6589Z" fill="#6B8FC3"/>
<path fill-rule="evenodd" clip-rule="evenodd" d="M98.8266 64.0236C77.4903 72.2562 35.7767 72.1229 30.1033 60.1871C32.39 58.435 34.5201 57.5116 36.1086 58.1657C40.8369 60.1126 49.6677 57.3544 53.4921 55.732C58.5912 54.5731 70.1802 53.1592 75.7429 56.775C81.3056 60.3907 88.4908 61.5265 91.388 61.6423C92.9905 61.5727 95.9082 62.0894 98.8266 64.0236Z" fill="#92BCF2"/>
<path d="M89.8116 93.3843C79.7987 95.3313 65.0112 94.8909 58.869 94.4273C62.3457 86.7786 68.9514 89.2123 69.2991 88.517C69.6468 87.8216 70.3421 82.9543 75.9048 83.3019C80.355 83.5801 81.9311 86.8945 82.1629 88.517C87.4474 87.4044 89.4639 91.2983 89.8116 93.3843Z" fill="white"/>
<path d="M118.841 47.1115C111.191 48.6365 99.8928 48.2916 95.2 47.9285C97.8563 41.9373 102.903 43.8436 103.169 43.299C103.435 42.7543 103.966 38.9418 108.216 39.2141C111.616 39.432 112.82 42.0281 112.997 43.299C117.035 42.4275 118.576 45.4775 118.841 47.1115Z" fill="white"/>
<path d="M46.0417 48.7111C38.3914 50.2361 27.093 49.8912 22.4001 49.5281C25.0565 43.5369 30.1036 45.4432 30.3692 44.8986C30.6348 44.3539 31.1661 40.5414 35.4163 40.8137C38.8164 41.0316 40.0206 43.6277 40.1977 44.8986C44.2353 44.0271 45.776 47.0772 46.0417 48.7111Z" fill="white"/>
<path d="M43.4515 32.7445C14.2472 33.857 -8.35127 28.3407 -16 25.4434C-10.7154 20.7151 -3.36801 22.3144 -0.354877 23.7051C2.14834 20.0893 7.64152 21.0396 10.0752 21.9667C14.5254 17.5166 19.3464 19.4172 21.2006 20.9237C29.8228 17.308 34.9915 22.4303 36.4981 25.4434C42.3389 25.4434 43.5674 30.3108 43.4515 32.7445Z" fill="white"/>
<path d="M26.31 84.5197L22.577 90.1893M7.64507 112.868L12.9335 104.836M16.9775 98.6938L24.8364 101.159M16.9775 98.6938L14.8 102.001M16.9775 98.6938L18.5329 96.3314M16.9775 98.6938L18.844 95.859M14.8 102.001L18.1072 104.179M14.8 102.001L16.6664 99.1663M14.8 102.001L11.4003 97.3922M14.8 102.001L12.9335 104.836M20.7105 93.0241L25.5849 94.8789M20.7105 93.0241L22.577 90.1893M20.7105 93.0241L18.7972 87.7007M20.7105 93.0241L18.844 95.859M20.7105 93.0241L18.5329 96.3314M22.577 90.1893L28.546 91.4103M22.577 90.1893L21.2052 83.5291M18.844 95.859L16.7004 91.3997L18.5329 96.3314M18.844 95.859L18.5329 96.3314M18.844 95.859L22.6292 97.3922L22.8542 97.4834M18.5329 96.3314L16.6664 99.1663M16.6664 99.1663L13.1054 93.7738M12.9335 104.836L8.65784 97.957M12.9335 104.836L17.5775 107.555" stroke="#E0EDFF" stroke-width="1.6" stroke-linecap="round" stroke-linejoin="round"/>
<path d="M37.5101 93.3205L33.7771 98.9901M18.8451 121.669L24.1335 113.637M28.1776 107.495L36.0365 109.96M28.1776 107.495L26 110.802M28.1776 107.495L29.733 105.132M28.1776 107.495L30.0441 104.66M26 110.802L29.3073 112.979M26 110.802L27.8665 107.967M26 110.802L22.6003 106.193M26 110.802L24.1335 113.637M31.9106 101.825L36.785 103.68M31.9106 101.825L33.7771 98.9901M31.9106 101.825L29.9973 96.5015M31.9106 101.825L30.0441 104.66M31.9106 101.825L29.733 105.132M33.7771 98.9901L39.7461 100.211M33.7771 98.9901L32.4053 92.3299M30.0441 104.66L27.9004 100.201L29.733 105.132M30.0441 104.66L29.733 105.132M30.0441 104.66L33.8293 106.193L34.0542 106.284M29.733 105.132L27.8665 107.967M27.8665 107.967L24.3055 102.575M24.1335 113.637L19.8579 106.758M24.1335 113.637L28.7775 116.356" stroke="#E0EDFF" stroke-width="1.6" stroke-linecap="round" stroke-linejoin="round"/>
<path d="M97.2498 90.4329L102.366 94.8949M122.829 112.743L115.581 106.422M110.039 101.588L113.54 94.1321M110.039 101.588L113.023 104.191M110.039 101.588L107.908 99.7287M110.039 101.588L107.481 99.3568M113.023 104.191L115.626 101.206M113.023 104.191L110.465 101.96M113.023 104.191L107.999 106.939M113.023 104.191L115.581 106.422M104.923 97.1259L107.417 92.5454M104.923 97.1259L102.366 94.8949M104.923 97.1259L99.3909 98.3054M104.923 97.1259L107.481 99.3568M104.923 97.1259L107.908 99.7287M102.366 94.8949L104.379 89.1444M102.366 94.8949L95.5813 95.358M107.481 99.3568L102.774 100.881L107.908 99.7287M107.481 99.3568L107.908 99.7287M107.481 99.3568L109.51 95.8124L109.631 95.6017M107.908 99.7287L110.465 101.96M110.465 101.96L104.643 104.763M115.581 106.422L108.19 109.733M115.581 106.422L118.9 102.186" stroke="#E0EDFF" stroke-width="1.6" stroke-linecap="round" stroke-linejoin="round"/>
<path d="M106.85 80.0335L111.966 84.4955M132.429 102.343L125.181 96.0222M119.639 91.1884L123.14 83.7327M119.639 91.1884L122.623 93.7912M119.639 91.1884L117.508 89.3292M119.639 91.1884L117.081 88.9574M122.623 93.7912L125.226 90.807M122.623 93.7912L120.066 91.5602M122.623 93.7912L117.599 96.5398M122.623 93.7912L125.181 96.0222M114.524 86.7264L117.017 82.146M114.524 86.7264L111.966 84.4955M114.524 86.7264L108.991 87.906M114.524 86.7264L117.081 88.9574M114.524 86.7264L117.508 89.3292M111.966 84.4955L113.979 78.745M111.966 84.4955L105.181 84.9586M117.081 88.9574L112.374 90.4815L117.508 89.3292M117.081 88.9574L117.508 89.3292M117.081 88.9574L119.11 85.413L119.231 85.2023M117.508 89.3292L120.066 91.5602M120.066 91.5602L114.243 94.3633M125.181 96.0222L117.79 99.3333M125.181 96.0222L128.501 91.7863" stroke="#E0EDFF" stroke-width="1.6" stroke-linecap="round" stroke-linejoin="round"/>
<path d="M111.503 64.4083L115.685 69.7552M132.414 91.1426L126.489 83.5679M121.959 77.7754L126.802 71.1139M121.959 77.7754L124.398 80.8944M121.959 77.7754L120.216 75.5476M121.959 77.7754L119.867 75.102M124.398 80.8944L127.517 78.4548M124.398 80.8944L122.307 78.221M124.398 80.8944L118.945 82.6459M124.398 80.8944L126.489 83.5679M117.776 72.4286L121.089 68.4008M117.776 72.4286L115.685 69.7552M117.776 72.4286L112.121 72.5433M117.776 72.4286L119.867 75.102M117.776 72.4286L120.216 75.5476M115.685 69.7552L118.747 64.4877M115.685 69.7552L108.935 68.9302M119.867 75.102L114.957 75.7108L120.216 75.5476M119.867 75.102L120.216 75.5476M119.867 75.102L122.528 72.0039L122.686 71.8198M120.216 75.5476L122.307 78.221M122.307 78.221L116.06 79.8754M126.489 83.5679L118.606 85.4252M126.489 83.5679L130.548 80.0341" stroke="#E0EDFF" stroke-width="1.6" stroke-linecap="round" stroke-linejoin="round"/>
<path d="M15.3551 67.7507L13.065 74.1409M3.90447 99.7019L7.14881 90.6491M9.62977 83.7263L17.8484 84.268M9.62977 83.7263L8.29387 87.454M9.62977 83.7263L10.584 81.0637M9.62977 83.7263L10.7748 80.5312M8.29387 87.454L12.0215 88.7899M8.29387 87.454L9.43893 84.2588M8.29387 87.454L3.90287 83.7771M8.29387 87.454L7.14881 90.6491M11.9199 77.3361L17.0943 77.9886M11.9199 77.3361L13.065 74.1409M11.9199 77.3361L8.80478 72.6142M11.9199 77.3361L10.7748 80.5312M11.9199 77.3361L10.584 81.0637M13.065 74.1409L19.1535 73.9193M13.065 74.1409L10.1607 67.9923M10.7748 80.5312L7.63972 76.7035L10.584 81.0637M10.7748 80.5312L10.584 81.0637M10.7748 80.5312L14.8149 81.1282L15.055 81.1637M10.584 81.0637L9.43893 84.2588M9.43893 84.2588L4.70625 79.8586M7.14881 90.6491L1.37109 84.973M7.14881 90.6491L12.3032 92.1958" stroke="#E0EDFF" stroke-width="1.6" stroke-linecap="round" stroke-linejoin="round"/>
<path d="M-14.5715 91.6545L-15.2405 98.4096M-17.9168 125.43L-16.969 115.861M-16.2441 108.542L-8.14009 107.071M-16.2441 108.542L-16.6344 112.483M-16.2441 108.542L-15.9654 105.728M-16.2441 108.542L-15.9096 105.165M-16.6344 112.483L-12.6939 112.873M-16.6344 112.483L-16.2999 109.105M-16.6344 112.483L-21.7871 109.983M-16.6344 112.483L-16.969 115.861M-15.5751 101.787L-10.3972 101.163M-15.5751 101.787L-15.2405 98.4096M-15.5751 101.787L-19.744 97.9636M-15.5751 101.787L-15.9096 105.165M-15.5751 101.787L-15.9654 105.728M-15.2405 98.4096L-9.3882 96.7155M-15.2405 98.4096L-19.5515 93.1508M-15.9096 105.165L-19.8807 102.213L-15.9654 105.728M-15.9096 105.165L-15.9654 105.728M-15.9096 105.165L-11.8455 104.763L-11.604 104.739M-15.9654 105.728L-16.2999 109.105M-16.2999 109.105L-21.9598 105.987M-16.969 115.861L-23.9525 111.758M-16.969 115.861L-11.5933 116.109" stroke="white" stroke-width="1.6" stroke-linecap="round" stroke-linejoin="round"/>
</g>
<circle cx="64" cy="64" r="62.4" stroke="#D7D7D7" stroke-width="3.2"/>
<defs>
<linearGradient id="paint0_linear_146_2276" x1="64" y1="0" x2="64" y2="128" gradientUnits="userSpaceOnUse">
<stop stop-color="#D1FFF7"/>
<stop offset="1" stop-color="#FF97F5"/>
</linearGradient>
<linearGradient id="paint1_linear_146_2276" x1="63.6432" y1="106.521" x2="64.2143" y2="128.794" gradientUnits="userSpaceOnUse">
<stop stop-color="white"/>
<stop offset="1" stop-color="#87A9E7"/>
</linearGradient>
</defs>
</svg>
