<svg width="24" height="24" viewBox="0 0 24 24" fill="none" xmlns="http://www.w3.org/2000/svg">
<circle cx="12" cy="12" r="10" fill="#FFC240"/>
<mask id="mask0_1499_1600" style="mask-type:alpha" maskUnits="userSpaceOnUse" x="0" y="0" width="24" height="24">
<rect width="24" height="24" fill="#D9D9D9"/>
</mask>
<g mask="url(#mask0_1499_1600)">
<path d="M12.5412 17.4975C12.3687 17.67 12.155 17.7563 11.9 17.7563C11.645 17.7563 11.4313 17.67 11.2588 17.4975C11.0863 17.325 11 17.1112 11 16.8563C11 16.6013 11.0863 16.3876 11.2588 16.215C11.4313 16.0427 11.645 15.9565 11.9 15.9565C12.155 15.9565 12.3687 16.0427 12.5412 16.215C12.7137 16.3876 12.8 16.6013 12.8 16.8563C12.8 17.1112 12.7137 17.325 12.5412 17.4975Z" fill="#2C2C2E"/>
<path d="M12.4955 13.4448C12.3357 13.6051 12.1372 13.6852 11.9003 13.6852C11.6635 13.6852 11.465 13.6051 11.3047 13.4448C11.1445 13.2848 11.0643 13.0864 11.0643 12.8496V7.83565C11.0643 7.59889 11.1444 7.40037 11.3045 7.24011C11.4643 7.08004 11.6628 7 11.8997 7C12.1365 7 12.335 7.08004 12.4953 7.24011C12.6555 7.40037 12.7357 7.59889 12.7357 7.83565V12.8496C12.7357 13.0864 12.6556 13.2848 12.4955 13.4448Z" fill="#2C2C2E"/>
</g>
</svg>
