<svg width="25" height="25" viewBox="0 0 25 25" fill="none" xmlns="http://www.w3.org/2000/svg">
<mask id="mask0_437_822" style="mask-type:alpha" maskUnits="userSpaceOnUse" x="0" y="0" width="25" height="25">
<rect x="0.455078" y="0.141602" width="24" height="24" fill="#D9D9D9"/>
</mask>
<g mask="url(#mask0_437_822)">
<path d="M10.9088 12.1414L14.9821 16.2144C15.1204 16.3529 15.1912 16.5269 15.1946 16.7366C15.1977 16.9461 15.1269 17.1234 14.9821 17.2684C14.8371 17.4132 14.6614 17.4856 14.4551 17.4856C14.2487 17.4856 14.0731 17.4132 13.9281 17.2684L9.43383 12.7741C9.34033 12.6804 9.27433 12.5817 9.23583 12.4779C9.19733 12.374 9.17808 12.2619 9.17808 12.1414C9.17808 12.0209 9.19733 11.9087 9.23583 11.8049C9.27433 11.701 9.34033 11.6023 9.43383 11.5086L13.9281 7.01436C14.0666 6.87603 14.2407 6.80519 14.4503 6.80186C14.6598 6.79869 14.8371 6.86953 14.9821 7.01436C15.1269 7.15936 15.1993 7.33503 15.1993 7.54136C15.1993 7.74769 15.1269 7.92336 14.9821 8.06836L10.9088 12.1414Z" fill="#2C2C2E"/>
</g>
</svg>
