<svg width="24" height="25" viewBox="0 0 24 25" fill="none" xmlns="http://www.w3.org/2000/svg">
<mask id="mask0_437_816" style="mask-type:alpha" maskUnits="userSpaceOnUse" x="0" y="0" width="24" height="25">
<rect y="0.154297" width="24" height="24" fill="#D9D9D9"/>
</mask>
<g mask="url(#mask0_437_816)">
<path d="M12 17.6158L8.03075 19.3195C7.42825 19.5772 6.85583 19.5279 6.3135 19.1715C5.77117 18.8152 5.5 18.314 5.5 17.6678V5.46205C5.5 4.95688 5.675 4.5293 6.025 4.1793C6.375 3.8293 6.80258 3.6543 7.30775 3.6543H16.6923C17.1974 3.6543 17.625 3.8293 17.975 4.1793C18.325 4.5293 18.5 4.95688 18.5 5.46205V17.6678C18.5 18.314 18.2288 18.8152 17.6865 19.1715C17.1442 19.5279 16.5718 19.5772 15.9693 19.3195L12 17.6158Z" fill="#2C2C2E"/>
</g>
</svg>
