<svg width="32" height="32" viewBox="0 0 32 32" fill="none" xmlns="http://www.w3.org/2000/svg">
<mask id="mask0_1607_2518" style="mask-type:alpha" maskUnits="userSpaceOnUse" x="0" y="0" width="32" height="32">
<rect width="32" height="32" fill="#B5B5B5"/>
</mask>
<g mask="url(#mask0_1607_2518)">
<path d="M16.002 28.6668C14.25 28.6668 12.6032 28.3344 11.0617 27.6695C9.52012 27.0046 8.17923 26.1023 7.03901 24.9625C5.89879 23.8227 4.99601 22.4824 4.33067 20.9415C3.66556 19.4006 3.33301 17.7543 3.33301 16.0025C3.33301 14.2505 3.66545 12.6037 4.33034 11.0622C4.99523 9.52061 5.89756 8.17972 7.03734 7.0395C8.17712 5.89927 9.51745 4.9965 11.0583 4.33116C12.5992 3.66605 14.2456 3.3335 15.9973 3.3335C17.7493 3.3335 19.3961 3.66594 20.9377 4.33083C22.4792 4.99572 23.8201 5.89805 24.9603 7.03783C26.1006 8.17761 27.0033 9.51794 27.6687 11.0588C28.3338 12.5997 28.6663 14.2461 28.6663 15.9978C28.6663 17.7498 28.3339 19.3966 27.669 20.9382C27.0041 22.4797 26.1018 23.8206 24.962 24.9608C23.8222 26.1011 22.4819 27.0038 20.941 27.6692C19.4001 28.3343 17.7538 28.6668 16.002 28.6668ZM15.9997 26.6668C18.9775 26.6668 21.4997 25.6335 23.5663 23.5668C25.633 21.5002 26.6663 18.9779 26.6663 16.0002C26.6663 13.0224 25.633 10.5002 23.5663 8.4335C21.4997 6.36683 18.9775 5.3335 15.9997 5.3335C13.0219 5.3335 10.4997 6.36683 8.43301 8.4335C6.36634 10.5002 5.33301 13.0224 5.33301 16.0002C5.33301 18.9779 6.36634 21.5002 8.43301 23.5668C10.4997 25.6335 13.0219 26.6668 15.9997 26.6668Z" fill="#E5E5EA"/>
</g>
</svg>
