<svg width="32" height="32" viewBox="0 0 32 32" fill="none" xmlns="http://www.w3.org/2000/svg">
<mask id="mask0_1607_2517" style="mask-type:alpha" maskUnits="userSpaceOnUse" x="0" y="0" width="32" height="32">
<rect width="32" height="32" fill="#D9D9D9"/>
</mask>
<g mask="url(#mask0_1607_2517)">
<path d="M11.0617 27.6695C12.6032 28.3344 14.25 28.6668 16.002 28.6668C17.7538 28.6668 19.4001 28.3343 20.941 27.6692C22.4819 27.0038 23.8222 26.1011 24.962 24.9608C26.1018 23.8206 27.0041 22.4797 27.669 20.9382C28.3339 19.3966 28.6663 17.7498 28.6663 15.9978C28.6663 14.2461 28.3338 12.5997 27.6687 11.0588C27.0033 9.51794 26.1006 8.17761 24.9603 7.03783C23.8201 5.89805 22.4792 4.99572 20.9377 4.33083C19.3961 3.66594 17.7493 3.3335 15.9973 3.3335C14.2456 3.3335 12.5992 3.66605 11.0583 4.33116C9.51745 4.9965 8.17712 5.89927 7.03734 7.0395C5.89756 8.17972 4.99523 9.52061 4.33034 11.0622C3.66545 12.6037 3.33301 14.2505 3.33301 16.0025C3.33301 17.7543 3.66556 19.4006 4.33067 20.9415C4.99601 22.4824 5.89879 23.8227 7.03901 24.9625C8.17923 26.1023 9.52012 27.0046 11.0617 27.6695Z" fill="#FFC240"/>
<path d="M15.6777 15.8594V16.6602H12.2012V17.3047H14.6914V19.375H9.67188V19.9805H14.9355V20.791H8.60742V18.6328H13.627V18.0859H8.59766V17.3047H11.127V16.6602H7.66992V15.8594H15.6777ZM8.02148 14.7559C9.76465 14.668 10.79 14.1992 11.0146 13.5742H8.44141V12.7637H11.127V12.0215H12.2012V12.7637H14.9062V13.5742H12.3135C12.5283 14.1992 13.5537 14.668 15.3164 14.7559L14.9941 15.5664C13.4072 15.4688 12.2207 15.0391 11.6641 14.3262C11.1074 15.0391 9.92578 15.4688 8.32422 15.5664L8.02148 14.7559ZM17.6699 12.4316V13.5547H19.7305V12.4316H20.8047V16.2793H16.5957V12.4316H17.6699ZM17.4844 17.7637V16.9141H23.2559V19.2285H18.5684V19.9316H23.5293V20.791H17.4941V18.4375H22.1719V17.7637H17.4844ZM17.6699 15.4199H19.7305V14.375H17.6699V15.4199ZM22.1719 16.5625V12.041H23.2559V13.8281H24.4863V14.707H23.2559V16.5625H22.1719Z" fill="#2C2C2E"/>
</g>
</svg>
