<svg width="138" height="166" viewBox="0 0 138 166" fill="none" xmlns="http://www.w3.org/2000/svg">
<path d="M59.4382 32.5337V39.2953C59.4382 40.0466 59.3016 41.4125 59.165 43.3249C59.0284 44.4177 58.3454 45.0324 57.2527 45.0324C54.7939 45.1007 52.745 45.1007 50.9692 44.9641C49.9447 44.9641 49.0568 44.5543 48.3738 43.8713C47.6909 43.1883 47.2811 42.3687 47.2811 41.4125C47.2128 38.0659 47.2128 33.8314 47.2811 28.709C47.2811 27.9577 47.3494 26.182 47.4177 23.45C47.486 20.7181 47.5543 18.8057 47.6226 17.7812C47.6226 16.4153 48.1007 15.5274 49.0568 14.981C49.2617 14.8444 49.6715 14.6395 50.2862 14.298C50.9009 14.0248 51.379 13.7516 51.7205 13.615C51.9937 13.4784 52.4035 13.3418 52.9498 13.1369C53.4962 12.932 53.9743 12.7954 54.4524 12.7271C54.9305 12.6589 55.4086 12.6589 55.955 12.6589C56.7746 12.7271 57.3893 12.7954 57.799 12.932C58.7552 13.3418 59.2333 14.0248 59.2333 15.0493C59.2333 16.9617 59.3699 19.4204 59.7114 22.2889C59.7797 22.8353 60.1895 23.1768 61.0091 23.2451C64.2874 23.5183 66.1315 23.6549 66.5413 23.7232C67.4974 23.9964 68.1121 24.7477 68.2487 26.1137C68.4536 28.1626 68.1121 30.0067 67.1559 31.5775C66.8827 32.0556 66.0632 32.3971 64.8338 32.5337H59.4382ZM14.5661 31.4409C9.92178 30.6214 7.39473 30.1433 6.91664 30.0067C5.48237 29.7335 4.79939 28.9822 4.86769 27.6845V23.1085C6.98494 22.2889 9.30709 21.8109 11.9024 21.5377C14.4978 21.3328 16.6833 21.2645 18.5274 21.3328C20.3032 21.4694 22.7619 21.6743 25.767 22.0157C26.5866 22.1523 27.4745 22.1523 28.4307 22.1523C29.3869 22.1523 30.4796 22.1523 31.7773 22.1523C33.075 22.1523 34.0995 22.084 34.7824 22.084V26.182C34.7824 26.8649 34.5775 27.343 34.1678 27.6162C33.6897 27.8894 33.1433 28.0943 32.4603 28.2309C31.7773 28.3675 31.3675 28.6407 31.1626 28.9139L32.0505 29.8701C35.8752 32.4654 36.968 36.0169 35.3971 40.5246C34.7141 42.437 33.1433 44.8275 30.6845 47.6277C30.2747 48.0375 29.7283 48.4473 28.9088 48.7205C28.0892 48.9937 27.3379 49.1986 26.5866 49.1986C22.8302 49.3352 19.5519 49.2669 16.8199 48.8571C12.8586 48.3107 10.195 46.8081 8.8973 44.2811C7.53133 41.754 8.00942 39.0221 10.195 36.0852C10.5365 35.6072 10.9463 35.1291 11.4243 34.5827C11.9024 34.0363 12.4488 33.4899 13.1318 32.8069C13.7465 32.1922 14.2246 31.7141 14.5661 31.4409ZM27.4062 39.8417C27.3379 38.7489 26.9964 37.9976 26.3817 37.5195C25.6987 37.1097 24.606 36.8365 23.0351 36.7682C21.9423 36.7682 21.0544 37.2463 20.4397 38.2025C19.7568 39.1587 19.347 40.3881 19.1421 41.754C19.0055 42.5736 19.2787 43.12 19.8251 43.4615C20.3715 43.803 21.3276 44.0079 22.6253 44.0079C23.9913 44.0079 25.084 43.6664 26.0402 42.8468C26.9281 42.0272 27.4062 41.071 27.4062 39.8417ZM14.3612 20.5132C14.6344 18.0544 14.8393 16.4836 14.9759 15.8006C14.9759 15.7323 15.0442 15.5957 15.1808 15.3908C15.8637 14.7078 17.3663 14.0931 19.6885 13.615C21.9423 13.1369 23.6498 13.0686 24.7426 13.4784C26.2451 14.0248 27.133 15.0493 27.4062 16.4153C27.6794 17.8495 27.2696 19.0106 26.0402 19.8985C25.2206 20.4449 24.1962 20.7181 22.9668 20.7181C22.4887 20.7864 20.3032 20.7181 16.4101 20.5815C16.1369 20.5815 15.454 20.5815 14.3612 20.5132ZM16.7516 60.1263C16.615 60.1263 16.2735 60.1946 15.7272 60.1946C15.1808 60.2629 14.771 60.2629 14.5661 60.2629C14.2929 60.2629 14.0197 60.2629 13.6099 60.1946C13.2001 60.1263 12.8586 59.9897 12.722 59.8531C12.5171 59.7165 12.3122 59.4433 12.1073 59.1018C11.9024 58.7604 11.7658 58.3506 11.7658 57.8042C11.6975 57.531 11.6292 56.9846 11.4926 56.2333C11.356 55.5503 11.2877 54.9356 11.2877 54.3893C11.2877 53.7063 11.356 52.955 11.5609 52.272C11.5609 51.9988 11.7658 51.6573 12.1756 51.3158C12.5854 51.0426 12.9952 50.8377 13.4733 50.8377C31.9139 50.7694 44.754 50.9743 52.1303 51.4524C53.6328 51.589 54.7939 51.7256 55.6818 51.9988C56.7063 52.4086 57.321 52.8867 57.5258 53.5014C57.7307 54.4575 57.8673 55.4137 57.8673 56.3699C57.8673 57.531 57.6624 58.897 57.3893 60.4678C56.8429 63.1315 55.4769 65.0438 53.223 66.1366C51.9937 66.7513 49.7398 67.2294 46.5298 67.5026C45.3687 67.6392 43.7295 67.7075 41.544 67.7075C39.3584 67.7758 37.8559 67.8441 36.968 67.9124C36.8314 67.9124 34.3726 67.9807 29.6601 68.049C24.8792 68.1173 22.2838 68.1856 21.8057 68.3221L21.874 70.1662C22.6936 70.1662 25.767 70.1662 31.0943 70.0296C36.4216 69.9613 39.5633 69.893 40.3829 69.893C42.227 69.893 43.8661 69.893 45.3004 69.8247C46.2566 69.8247 47.7592 69.7564 49.7398 69.6198C51.6522 69.4832 53.0864 69.4149 54.0426 69.3466H54.1792C55.4086 69.3466 56.0916 69.8247 56.0916 70.7809V71.1224C55.6818 73.2396 55.3403 74.8788 55.0671 75.9716C54.7256 77.0644 54.1792 77.8156 53.4279 78.2254C52.6767 78.6352 51.4473 78.8401 49.6715 78.8401H48.8519C47.0762 78.8401 44.5491 78.7035 41.3391 78.4986C38.1291 78.2937 35.8752 78.1571 34.5775 78.0205C32.5286 77.9522 30.7528 77.9522 29.182 78.0205C27.6111 78.1571 25.8353 78.1571 23.923 78.0205C22.0106 77.9522 20.3032 77.7473 18.8006 77.4059C16.7516 76.9961 15.3174 76.3131 14.4978 75.2203C13.6782 74.1275 13.2001 72.6933 12.9269 70.8492C12.8586 70.576 12.8586 69.8247 12.8586 68.4587C12.8586 68.3904 12.8586 67.8441 12.9269 66.8879C12.9269 65.4536 13.3367 64.4291 14.0197 63.8827C14.7027 63.3364 15.8637 63.0632 17.6395 62.9949C24.1962 62.8583 32.8701 62.5168 43.7295 62.0387C45.0955 62.0387 45.7785 61.5606 45.7785 60.6044V60.2629C45.7102 59.9897 45.7102 59.7165 45.7102 59.4433V59.1018C45.7102 58.9653 45.3687 58.897 44.6857 58.897C44.0027 58.897 42.7734 58.897 40.9976 58.9653C39.2218 59.0336 37.3778 59.1018 35.3971 59.2384C33.4165 59.375 30.6162 59.5116 27.0647 59.6482C23.5132 59.8531 20.03 59.9897 16.7516 60.1263ZM127.737 32.5337V39.2953C127.737 40.0466 127.6 41.4125 127.464 43.3249C127.327 44.4177 126.644 45.0324 125.551 45.0324C123.092 45.1007 121.043 45.1007 119.268 44.9641C118.243 44.9641 117.355 44.5543 116.672 43.8713C115.989 43.1883 115.58 42.3687 115.58 41.4125C115.511 38.0659 115.511 33.8314 115.58 28.709C115.58 27.9577 115.648 26.182 115.716 23.45C115.784 20.7181 115.853 18.8057 115.921 17.7812C115.921 16.4153 116.399 15.5274 117.355 14.981C117.56 14.8444 117.97 14.6395 118.585 14.298C119.199 14.0248 119.678 13.7516 120.019 13.615C120.292 13.4784 120.702 13.3418 121.248 13.1369C121.795 12.932 122.273 12.7954 122.751 12.7271C123.229 12.6589 123.707 12.6589 124.254 12.6589C125.073 12.7271 125.688 12.7954 126.098 12.932C127.054 13.3418 127.532 14.0248 127.532 15.0493C127.532 16.9617 127.668 19.4204 128.01 22.2889C128.078 22.8353 128.488 23.1768 129.308 23.2451C132.586 23.5183 134.43 23.6549 134.84 23.7232C135.796 23.9964 136.411 24.7477 136.547 26.1137C136.752 28.1626 136.411 30.0067 135.454 31.5775C135.181 32.0556 134.362 32.3971 133.132 32.5337H127.737ZM77.0592 15.664C77.7422 15.664 79.1765 15.664 81.2937 15.8006C83.3427 15.9372 84.8453 15.9372 85.7331 15.8689C86.1429 15.8689 86.8259 15.8689 87.7138 15.8689C88.5334 15.9372 89.2164 15.9372 89.6262 15.8689C94.8851 15.5957 99.4611 15.8006 103.354 16.6202C106.359 17.3031 107.657 19.2838 107.384 22.5621C107.247 23.7232 107.111 26.182 106.974 29.8701C106.837 31.919 106.769 33.5582 106.701 34.7876C106.564 36.0169 106.359 37.4512 106.018 39.227C105.676 41.0027 105.198 42.5053 104.652 43.8713C104.174 45.0324 103.559 45.8519 102.739 46.33C100.691 47.6277 98.8465 48.5156 97.2756 48.9937C96.6609 49.1303 96.2511 49.1303 95.9779 49.1303C95.7047 49.1303 95.2266 49.1303 94.5436 49.062C93.8607 48.9937 93.4509 48.9254 93.1777 48.9254C87.0308 48.7205 83.5476 48.5839 82.7963 48.5156C81.4303 48.4473 80.0644 47.7643 78.835 46.3983C77.5373 45.0324 76.786 43.6664 76.6494 42.3004C76.3762 40.5246 76.3079 38.544 76.3079 36.3584C76.3079 34.1729 76.3762 32.5337 76.5128 31.3043C76.5811 30.1433 76.7177 28.1626 76.9909 25.3624C77.0592 24.4062 77.1275 23.45 77.1275 22.3572C77.1275 21.3328 77.0592 20.1034 77.0592 18.7374C77.0592 17.3715 77.0592 16.347 77.0592 15.664ZM86.4161 25.2941V34.2412C86.4161 35.334 86.621 36.0852 86.9625 36.3584C87.304 36.6999 88.0553 36.9048 89.2164 36.9048C89.4896 36.9048 90.0359 36.9731 90.7189 36.9731C91.4019 36.9731 91.88 36.9731 92.2898 36.9731C93.1094 36.9731 93.929 36.7682 94.6119 36.2218C95.2949 35.6755 95.6364 35.0608 95.7047 34.2412C95.8413 30.3482 95.4315 27.1381 94.4071 24.6111L86.4161 25.2941ZM111.14 68.3904C112.233 68.3904 113.189 67.9807 114.009 67.0245C114.828 66.1366 115.238 65.0438 115.238 63.6779C115.238 61.7655 114.145 60.6044 112.096 60.1263C109.843 59.7165 105.403 59.4433 98.7782 59.4433H98.7099C98.0269 59.4433 97.4805 59.5799 97.0024 59.7848C96.5243 60.058 96.1145 60.3995 95.8413 60.8776C95.5681 61.3557 95.3632 61.7655 95.2266 62.107C95.09 62.5168 94.9534 62.9949 94.8168 63.6779C94.6802 64.0193 94.6802 64.2925 94.6802 64.5657C94.6802 65.317 94.8851 65.9317 95.4315 66.3415C95.9779 66.8196 96.5926 67.0928 97.4122 67.2294C98.1635 67.4343 99.1879 67.5709 100.554 67.7075C101.852 67.8441 103.013 67.9807 104.037 67.9807C104.993 68.049 106.291 68.1173 107.862 68.1856C109.433 68.3221 110.457 68.3904 110.935 68.3904H111.14ZM101.1 52.4769C103.696 52.4769 106.837 52.7501 110.389 53.1599C113.94 53.5697 116.946 54.1161 119.404 54.799C123.571 56.0284 125.893 58.214 126.371 61.3557C126.507 62.1753 126.576 62.9266 126.576 63.6096C126.576 66.683 125.346 69.1417 122.956 70.9175C121.317 72.1469 119.951 73.1713 118.858 73.8543C117.765 74.5373 116.467 75.2203 114.828 75.835C113.189 76.518 111.55 76.8595 109.911 76.8595C109.228 76.8595 107.589 76.9961 104.925 77.1327C102.261 77.2693 100.486 77.3376 99.5977 77.3376C98.3001 77.3376 97.139 77.2693 96.1828 77.0644C95.9096 77.0644 95.6364 77.0644 95.2266 76.9278C93.3143 76.6546 91.8117 76.3814 90.8555 76.1765C89.831 75.9716 88.6017 75.5618 87.1674 74.8788C85.7331 74.2641 84.5038 73.4445 83.5476 72.4201C81.7035 70.6443 80.8156 69.0051 80.8156 67.4343C80.8156 64.2925 81.2254 61.9021 82.1816 60.3312C84.7087 56.0967 89.9676 53.5014 97.8903 52.6818C98.9148 52.5452 100.008 52.4769 101.1 52.4769ZM48.1007 96.9127C50.696 96.7761 52.1303 96.7078 52.2669 96.7078C53.7694 96.7761 55.2037 96.9127 56.7063 97.1176C58.2088 97.3225 59.5065 97.4591 60.6676 97.5274C61.9653 97.664 62.6482 98.4153 62.7165 99.7129C62.7165 101.352 62.8531 103.879 63.058 107.226C63.2629 110.641 63.3995 113.168 63.4678 114.875C63.5361 116.173 63.5361 118.495 63.5361 121.773C63.5361 125.12 63.5361 127.442 63.5361 128.672C63.5361 130.516 63.5361 134.272 63.5361 140.009C63.5361 145.746 63.5361 149.571 63.5361 151.415V151.552C63.5361 152.508 63.3995 153.464 63.1263 154.283C62.5116 155.991 61.4189 156.811 59.848 156.742C59.0967 156.742 58.2088 156.811 57.2527 156.811C56.2965 156.811 55.4769 156.811 54.7939 156.674C54.2475 156.674 53.6328 156.469 53.0864 156.128C52.4718 155.854 52.062 155.445 51.9254 155.035C50.5594 151.756 49.8764 149.229 49.8081 147.454C49.6032 143.492 49.4666 136.731 49.3983 127.306C49.33 117.88 49.2617 111.46 49.1251 107.977C49.1251 106.884 49.0568 105.792 48.9202 104.562C48.7836 103.333 48.647 101.967 48.5104 100.396L48.1007 96.9127ZM15.8637 103.264C15.5906 104.357 15.3857 108.045 15.3857 114.465C15.3857 120.885 15.1125 125.12 14.5661 127.237C14.4295 128.262 14.6344 129.013 15.1808 129.491C15.7272 130.037 16.5467 130.311 17.6395 130.311C18.664 130.311 19.7568 130.311 20.8495 130.174C21.9423 130.037 23.0351 129.901 24.1962 129.764C25.3572 129.628 26.1768 129.628 26.7232 129.628C25.3572 120.817 24.8792 111.938 25.1523 103.06C25.2889 103.128 26.7915 103.401 29.7966 103.947C32.8018 104.494 35.0556 104.904 36.6265 105.04C37.7193 105.177 38.6072 105.655 39.3584 106.406C40.0414 107.157 40.3829 108.045 40.3829 109.002C40.3146 110.299 40.2463 112.895 40.178 116.788C40.0414 120.749 39.9731 124.027 39.8365 126.691C39.6999 129.355 39.5633 131.95 39.2901 134.409C39.1535 135.57 39.017 136.321 38.9486 136.731C38.8804 137.141 38.7438 137.892 38.6072 139.053C38.4023 140.282 38.1974 141.102 38.0608 141.648C37.9242 142.195 37.651 142.946 37.3778 143.97C37.1046 145.063 36.7631 145.814 36.4216 146.361C36.0801 146.907 35.6703 147.522 35.1922 148.273C34.6458 149.093 34.0995 149.639 33.5531 149.981C32.9384 150.39 32.2554 150.732 31.5041 151.005C30.6845 151.347 29.8649 151.483 28.9771 151.483C27.5428 151.483 25.767 151.62 23.7181 151.825C21.6691 152.098 19.8251 152.303 18.3225 152.439C16.8199 152.644 15.1125 152.713 13.2001 152.576C11.2877 152.508 9.51199 152.166 8.00942 151.552C7.46303 151.415 6.98494 151.142 6.64345 150.732C6.30195 150.39 6.09706 149.912 5.96046 149.366C5.82386 148.82 5.68727 148.41 5.61897 148C5.55067 147.659 5.55067 147.112 5.55067 146.429C5.41407 143.97 5.27748 140.214 5.07258 135.296C4.79939 130.379 4.59449 125.94 4.45789 121.978C4.3213 118.017 4.1847 114.329 4.1164 110.777C4.1847 109.07 4.3213 107.704 4.52619 106.679C4.73109 105.655 5.00428 104.904 5.41407 104.357C5.82386 103.811 6.30195 103.469 6.91664 103.333C7.53133 103.196 8.28261 103.196 9.10219 103.196C9.92178 103.196 10.9463 103.264 12.039 103.333C13.1318 103.401 14.4295 103.401 15.8637 103.264ZM24.1279 136.936C23.3766 136.936 22.557 136.936 21.7374 136.936C20.8495 136.936 20.2349 136.867 19.8251 136.799C19.4153 136.799 18.9372 136.799 18.3908 136.867C17.8444 136.936 17.5029 137.004 17.3663 137.004C17.1614 137.072 16.9565 137.209 16.7516 137.482C16.4784 137.755 16.3418 138.028 16.3418 138.302C16.3418 138.575 16.3418 138.985 16.3418 139.531C16.3418 140.146 16.3418 140.76 16.4784 141.307C16.5467 141.921 16.6833 142.741 16.8882 143.765C19.6202 144.858 21.6008 145.2 22.7619 144.927C23.8547 144.653 24.4694 143.834 24.4694 142.4C24.4694 141.034 24.3328 139.189 24.1279 136.936ZM91.88 107.499C89.4213 106.953 86.3478 107.021 82.6597 107.704C78.9716 108.387 76.3762 108.728 75.0103 108.66C75.4884 104.562 75.8299 101.625 76.103 99.8495C79.7229 99.3715 81.6352 99.0983 81.9084 99.0983C88.0553 98.7568 92.0166 98.6202 93.929 98.6885C94.8851 98.7568 95.8413 98.8934 96.7975 99.03C97.7537 99.2349 98.9831 99.508 100.486 99.8495C101.92 100.259 102.876 100.464 103.422 100.533C105.062 100.942 105.676 102.103 105.13 103.947C104.584 105.792 104.174 107.089 103.901 107.909C103.627 108.728 103.081 109.753 102.398 111.119C101.715 112.485 100.895 113.578 99.9392 114.465C99.666 114.739 99.3245 115.08 98.9148 115.49C98.4367 115.9 98.0952 116.241 97.9586 116.378C97.822 116.514 97.6171 116.719 97.4805 116.992C97.3439 117.266 97.2756 117.539 97.3439 117.675C97.4122 117.88 97.5488 118.085 97.822 118.358C98.0269 118.632 98.3684 118.905 98.8465 119.178C99.1196 119.383 99.5294 119.793 100.212 120.339C100.827 120.885 101.237 121.295 101.374 121.5C101.988 122.388 102.808 123.276 103.764 124.232C104.72 125.188 105.471 126.076 106.086 126.964C107.179 128.603 106.974 129.833 105.335 130.652C104.788 130.994 104.037 131.472 103.081 132.155C102.125 132.838 101.442 133.248 101.1 133.452C100.759 133.726 100.486 133.862 100.212 133.931C99.9392 133.999 99.5977 133.999 99.2562 133.862C98.9148 133.726 98.7099 133.657 98.5733 133.589C98.4367 133.589 98.1635 133.384 97.6854 133.043C97.2073 132.769 96.9341 132.565 96.8658 132.496C96.5243 132.36 96.3194 132.223 96.2511 132.086C96.1145 131.95 96.0462 131.882 96.0462 131.813C96.0462 131.745 95.9096 131.54 95.7047 131.267C95.4315 130.994 95.09 130.584 94.6119 130.106C94.4071 129.969 94.0656 129.559 93.5192 128.808C92.9728 128.125 92.4264 127.51 92.0166 127.101C90.6506 125.735 89.1481 125.12 87.5089 125.12C85.8697 125.12 83.8891 125.94 81.4303 127.579C80.0644 128.467 78.6301 129.628 77.1275 131.062C75.7616 132.291 74.942 132.018 74.5322 130.311C73.6443 126.759 73.1662 124.574 73.0296 123.686C72.7564 122.183 72.9613 120.817 73.6443 119.656C74.3273 118.563 75.4884 117.744 77.0592 117.197C79.3814 116.514 81.5669 115.558 83.5476 114.192C85.4599 112.826 87.7138 111.05 90.3091 108.797C90.3091 108.797 90.8555 108.387 91.88 107.499ZM133.201 127.442C133.132 130.311 132.449 132.291 131.152 133.384C130.605 133.794 129.922 134.135 129.103 134.272C128.283 134.409 127.532 134.477 126.917 134.409H126.029L124.527 133.999C123.571 133.794 123.161 133.179 123.161 132.223V120.885C121.931 121.159 120.565 121.295 119.131 121.432C116.467 121.705 114.897 121.09 114.419 119.588C113.394 116.719 114.077 113.851 116.536 110.982C116.672 110.846 116.946 110.709 117.424 110.572C117.833 110.504 118.516 110.436 119.473 110.368C120.36 110.299 120.907 110.231 121.112 110.163C121.18 110.163 121.795 110.231 122.888 110.368C122.751 106.748 122.751 102.855 122.751 98.6885C122.751 97.8006 123.024 97.0493 123.707 96.4346C124.322 95.8882 125.141 95.5467 126.098 95.5467L130.947 96.0248L131.63 96.5712C131.903 96.7761 132.244 97.1859 132.791 97.8006C133.269 98.4153 133.542 99.03 133.542 99.5763V109.753C133.474 109.753 133.406 110.846 133.406 113.031C133.406 115.217 133.337 117.88 133.337 120.954C133.269 124.096 133.201 126.213 133.201 127.442ZM99.666 145.814C108.955 145.268 114.214 144.995 115.375 144.858C116.536 144.79 117.902 144.653 119.541 144.517C121.18 144.38 122.546 144.244 123.639 144.107C124.732 143.97 125.688 143.902 126.371 143.902C127.259 143.902 127.942 145.063 128.351 147.249C128.42 147.727 128.488 148.683 128.488 150.049C128.488 151.62 128.078 153.191 127.259 154.83C126.985 155.308 126.371 155.649 125.415 155.786C124.458 155.923 121.248 156.128 115.784 156.401C110.321 156.674 107.111 156.879 106.086 157.015C105.813 157.084 105.608 157.084 105.335 157.084C104.174 157.084 101.715 157.152 97.9586 157.22C94.2022 157.289 91.4702 157.357 89.7628 157.425C89.353 157.425 88.6017 157.493 87.6455 157.562C86.6893 157.63 85.938 157.63 85.4599 157.63C83.8891 157.63 82.5914 157.357 81.6352 156.742C81.2937 156.606 81.0205 156.264 80.7473 155.854C80.4742 155.445 80.4059 155.103 80.4059 154.693C80.201 152.713 80.0644 149.912 79.9278 146.224C79.7912 142.536 79.6546 140.009 79.5863 138.575L79.518 137.619C79.518 136.936 79.518 136.321 79.518 135.638L79.4497 134.682C79.5863 134.682 79.9278 134.613 80.5425 134.477C81.1571 134.34 81.5669 134.204 81.7718 134.135C82.2499 134.067 83.3427 133.999 85.0502 133.999C87.0308 133.999 88.2602 134.135 88.8066 134.272C89.353 134.477 89.6262 134.818 89.6262 135.296C89.6262 135.501 89.6945 135.979 89.831 136.662C89.9676 137.345 90.1042 137.824 90.1042 138.028C90.1042 138.78 90.2408 140.146 90.6506 142.195C90.6506 142.468 90.7189 143.083 90.8555 143.97C90.9238 144.858 91.0604 145.61 91.2653 146.293L99.666 145.814Z" fill="white"/>
<ellipse cx="101.618" cy="38.8913" rx="2.09091" ry="1.25455" fill="#888888"/>
<ellipse cx="123.364" cy="18.8185" rx="2.09091" ry="1.25455" fill="#888888"/>
<ellipse cx="127.545" cy="127.545" rx="2.09091" ry="1.25455" fill="#888888"/>
<ellipse cx="117.509" cy="155.146" rx="2.09091" ry="1.25455" fill="#888888"/>
<ellipse cx="33.0363" cy="116.673" rx="2.09091" ry="1.25455" fill="#888888"/>
<ellipse cx="88.2364" cy="61.4728" rx="2.09091" ry="1.25455" fill="#888888"/>
<ellipse cx="30.5273" cy="74.8546" rx="2.09091" ry="1.25455" fill="#888888"/>
<ellipse cx="55.2" cy="43.4911" rx="1.67273" ry="0.836364" fill="#888888"/>
<ellipse cx="24.2545" cy="55.2006" rx="1.67273" ry="0.836364" fill="#888888"/>
<ellipse cx="21.7455" cy="57.2912" rx="0.836364" ry="0.418182" fill="#888888"/>
<ellipse cx="119.6" cy="69.0002" rx="0.836364" ry="0.418182" fill="#888888"/>
<ellipse cx="121.273" cy="116.673" rx="0.836364" ry="0.418182" fill="#888888"/>
<ellipse cx="81.9636" cy="23.8366" rx="0.836364" ry="0.418182" fill="#888888"/>
<ellipse cx="81.9636" cy="118.346" rx="0.836364" ry="0.418182" fill="#888888"/>
<ellipse cx="31.7818" cy="120.855" rx="0.836364" ry="0.418182" fill="#888888"/>
<ellipse cx="11.2909" cy="135.909" rx="2.09091" ry="1.25455" fill="#888888"/>
<ellipse cx="32.2" cy="144.273" rx="2.09091" ry="1.25455" fill="#888888"/>
<ellipse cx="53.1091" cy="102.455" rx="2.09091" ry="1.25455" fill="#888888"/>
<ellipse cx="59.8" cy="135.909" rx="2.09091" ry="1.25455" fill="#888888"/>
<ellipse cx="80.7091" cy="121.691" rx="2.09091" ry="1.25455" fill="#888888"/>
<ellipse cx="81.5455" cy="20.4909" rx="2.09091" ry="1.25455" fill="#888888"/>
<ellipse cx="53.1091" cy="60.6364" rx="2.09091" ry="1.25455" fill="#888888"/>
<ellipse cx="15.4727" cy="45.5822" rx="2.09091" ry="1.25455" fill="#888888"/>
<ellipse cx="55.6182" cy="18.8185" rx="2.09091" ry="1.25455" fill="#888888"/>
</svg>
