<svg width="24" height="24" viewBox="0 0 24 24" fill="none" xmlns="http://www.w3.org/2000/svg">
<mask id="mask0_136_263" style="mask-type:alpha" maskUnits="userSpaceOnUse" x="0" y="0" width="24" height="24">
<rect width="24" height="24" fill="#D9D9D9"/>
</mask>
<g mask="url(#mask0_136_263)">
<path d="M15.1538 15.8463H18.8463V12.1537H17.6538V14.6538H15.1538V15.8463ZM12 14.6923C12.7435 14.6923 13.3781 14.4294 13.9038 13.9038C14.4294 13.3781 14.6923 12.7435 14.6923 12C14.6923 11.2565 14.4294 10.6219 13.9038 10.0962C13.3781 9.57058 12.7435 9.30775 12 9.30775C11.2565 9.30775 10.6219 9.57058 10.0963 10.0962C9.57058 10.6219 9.30775 11.2565 9.30775 12C9.30775 12.7435 9.57058 13.3781 10.0963 13.9038C10.6219 14.4294 11.2565 14.6923 12 14.6923ZM5.15375 11.8463H6.34625V9.34625H8.84625V8.15375H5.15375V11.8463ZM2.5 18.5V5.5H21.5V18.5H2.5ZM4 17H20V7H4V17Z" fill="#36BF9F"/>
</g>
</svg>
