<svg width="24" height="24" viewBox="0 0 24 24" fill="none" xmlns="http://www.w3.org/2000/svg">
<mask id="mask0_540_1290" style="mask-type:alpha" maskUnits="userSpaceOnUse" x="0" y="0" width="24" height="24">
<rect width="24" height="24" fill="#D9D9D9"/>
</mask>
<g mask="url(#mask0_540_1290)">
<path d="M10.377 13.604L4.63276 11.2772C4.43526 11.2002 4.29293 11.0828 4.20576 10.925C4.1186 10.7673 4.07501 10.6058 4.07501 10.4405C4.07501 10.2751 4.12276 10.113 4.21826 9.95397C4.31376 9.79514 4.46026 9.67722 4.65776 9.60022L18.3478 4.47422C18.5261 4.39922 18.6989 4.38455 18.8663 4.43022C19.0336 4.47589 19.1781 4.55955 19.2998 4.68122C19.4214 4.80289 19.5051 4.94739 19.5508 5.11472C19.5964 5.28205 19.5816 5.4548 19.5063 5.63297L14.3603 19.317C14.2851 19.51 14.1685 19.6548 14.0105 19.7515C13.8525 19.848 13.6908 19.8962 13.5253 19.8962C13.3598 19.8962 13.1973 19.8509 13.0378 19.7602C12.8783 19.6694 12.7605 19.5256 12.6845 19.329L10.377 13.604ZM13.4923 17.3387L17.6578 6.32322L6.62301 10.4695L11.523 12.4387L13.4923 17.3387Z" fill="#1EB17B"/>
</g>
</svg>
