<svg width="20" height="20" viewBox="0 0 20 20" fill="none" xmlns="http://www.w3.org/2000/svg">
<mask id="mask0_1709_5078" style="mask-type:alpha" maskUnits="userSpaceOnUse" x="0" y="0" width="20" height="20">
<rect width="20" height="20" fill="#D9D9D9"/>
</mask>
<g mask="url(#mask0_1709_5078)">
<path d="M10.0322 16.25C8.28729 16.25 6.80944 15.6447 5.59861 14.434C4.38764 13.2233 3.78215 11.7457 3.78215 10.0012C3.78215 8.25681 4.38764 6.77882 5.59861 5.56729C6.80944 4.35576 8.28729 3.75 10.0322 3.75C11.0065 3.75 11.9285 3.9666 12.7982 4.39979C13.6678 4.83312 14.391 5.44451 14.968 6.23396V4.375C14.968 4.19792 15.0279 4.04951 15.1478 3.92979C15.2676 3.80993 15.4161 3.75 15.5932 3.75C15.7704 3.75 15.9188 3.80993 16.0384 3.92979C16.1581 4.04951 16.218 4.19792 16.218 4.375V8.09292C16.218 8.30639 16.1458 8.48528 16.0015 8.62958C15.8571 8.77389 15.6782 8.84604 15.4649 8.84604H11.7469C11.5699 8.84604 11.4214 8.78618 11.3015 8.66646C11.1818 8.5466 11.1219 8.39806 11.1219 8.22083C11.1219 8.04375 11.1818 7.89535 11.3015 7.77562C11.4214 7.65604 11.5699 7.59625 11.7469 7.59625H14.4136C13.9744 6.79167 13.3654 6.15785 12.5865 5.69479C11.8078 5.2316 10.9563 5 10.0322 5C8.64326 5 7.46271 5.48611 6.49048 6.45833C5.51826 7.43056 5.03215 8.61111 5.03215 10C5.03215 11.3889 5.51826 12.5694 6.49048 13.5417C7.46271 14.5139 8.64326 15 10.0322 15C11.0006 15 11.8872 14.7457 12.6919 14.2371C13.4967 13.7286 14.1063 13.0502 14.5209 12.2019C14.5999 12.0502 14.7161 11.9442 14.8694 11.8838C15.0228 11.8235 15.179 11.82 15.3382 11.8733C15.5081 11.9268 15.6269 12.0379 15.6949 12.2067C15.7626 12.3756 15.757 12.5358 15.678 12.6875C15.1619 13.7665 14.4001 14.63 13.3926 15.2779C12.3851 15.926 11.2649 16.25 10.0322 16.25Z" fill="#636366"/>
</g>
</svg>
