<svg width="25" height="25" viewBox="0 0 25 25" fill="none" xmlns="http://www.w3.org/2000/svg">
<g opacity="0.5">
<mask id="mask0_437_1458" style="mask-type:alpha" maskUnits="userSpaceOnUse" x="0" y="0" width="25" height="25">
<rect x="0.5" y="0.798828" width="24" height="24" fill="#D9D9D9"/>
</mask>
<g mask="url(#mask0_437_1458)">
<path d="M6.5 19.7987H9.84625V14.7602C9.84625 14.5042 9.93283 14.2895 10.106 14.1162C10.2793 13.943 10.494 13.8564 10.75 13.8564H14.25C14.506 13.8564 14.7207 13.943 14.894 14.1162C15.0672 14.2895 15.1538 14.5042 15.1538 14.7602V19.7987H18.5V10.9524C18.5 10.9013 18.4888 10.8549 18.4663 10.8132C18.4439 10.7715 18.4135 10.7346 18.375 10.7024L12.6828 6.4237C12.6314 6.37886 12.5705 6.35645 12.5 6.35645C12.4295 6.35645 12.3686 6.37886 12.3173 6.4237L6.625 10.7024C6.5865 10.7346 6.55608 10.7715 6.53375 10.8132C6.51125 10.8549 6.5 10.9013 6.5 10.9524V19.7987ZM5 19.7987V10.9524C5 10.6663 5.064 10.3952 5.192 10.1392C5.32017 9.88303 5.49717 9.67211 5.723 9.50645L11.4155 5.21795C11.7313 4.97695 12.0923 4.85645 12.4985 4.85645C12.9047 4.85645 13.2667 4.97695 13.5845 5.21795L19.277 9.50645C19.5028 9.67211 19.6798 9.88303 19.808 10.1392C19.936 10.3952 20 10.6663 20 10.9524V19.7987C20 20.2077 19.8523 20.5599 19.5568 20.8554C19.2613 21.1509 18.909 21.2987 18.5 21.2987H14.5577C14.3016 21.2987 14.0869 21.212 13.9137 21.0387C13.7404 20.8655 13.6538 20.6509 13.6538 20.3947V15.3564H11.3463V20.3947C11.3463 20.6509 11.2596 20.8655 11.0863 21.0387C10.9131 21.212 10.6984 21.2987 10.4423 21.2987H6.5C6.091 21.2987 5.73875 21.1509 5.44325 20.8554C5.14775 20.5599 5 20.2077 5 19.7987Z" fill="#2C2C2E"/>
</g>
</g>
</svg>
