<svg width="25" height="25" viewBox="0 0 25 25" fill="none" xmlns="http://www.w3.org/2000/svg">
<mask id="mask0_437_1465" style="mask-type:alpha" maskUnits="userSpaceOnUse" x="0" y="0" width="25" height="25">
<rect x="0.478516" y="0.798828" width="24" height="24" fill="#D9D9D9"/>
</mask>
<g mask="url(#mask0_437_1465)">
<path d="M4.97852 19.7987V10.9524C4.97852 10.6663 5.04252 10.3952 5.17052 10.1392C5.29868 9.88303 5.47568 9.67211 5.70152 9.50645L11.394 5.21795C11.7098 4.97695 12.0708 4.85645 12.477 4.85645C12.8832 4.85645 13.2452 4.97695 13.563 5.21795L19.2555 9.50645C19.4813 9.67211 19.6583 9.88303 19.7865 10.1392C19.9145 10.3952 19.9785 10.6663 19.9785 10.9524V19.7987C19.9785 20.2077 19.8308 20.5599 19.5353 20.8554C19.2398 21.1509 18.8875 21.2987 18.4785 21.2987H15.2863C15.0301 21.2987 14.8154 21.212 14.6423 21.0387C14.4689 20.8655 14.3823 20.6509 14.3823 20.3947V15.5102C14.3823 15.2542 14.2957 15.0395 14.1225 14.8662C13.9493 14.693 13.7347 14.6064 13.4785 14.6064H11.4785C11.2223 14.6064 11.0077 14.693 10.8345 14.8662C10.6613 15.0395 10.5748 15.2542 10.5748 15.5102V20.3947C10.5748 20.6509 10.4881 20.8655 10.3148 21.0387C10.1416 21.212 9.92693 21.2987 9.67077 21.2987H6.47852C6.06952 21.2987 5.71727 21.1509 5.42177 20.8554C5.12627 20.5599 4.97852 20.2077 4.97852 19.7987Z" fill="#1EB17B"/>
</g>
</svg>
