<svg width="25" height="25" viewBox="0 0 25 25" fill="none" xmlns="http://www.w3.org/2000/svg">
<mask id="mask0_437_1475" style="mask-type:alpha" maskUnits="userSpaceOnUse" x="0" y="0" width="25" height="25">
<rect x="0.478516" y="0.798828" width="24" height="24" fill="#D9D9D9"/>
</mask>
<g mask="url(#mask0_437_1475)">
<path d="M14.8958 21.0544L9.47852 19.1601L5.20277 20.8144C5.04943 20.8757 4.90118 20.895 4.75802 20.8724C4.61502 20.8497 4.48327 20.8006 4.36277 20.7251C4.24227 20.6496 4.1481 20.5476 4.08027 20.4191C4.01243 20.2908 3.97852 20.1435 3.97852 19.9774V6.87887C3.97852 6.67637 4.03143 6.49737 4.13727 6.34187C4.24293 6.1862 4.39135 6.07312 4.58252 6.00262L8.88627 4.54287C8.97743 4.50954 9.07235 4.48454 9.17102 4.46787C9.26968 4.4512 9.37218 4.44287 9.47852 4.44287C9.58485 4.44287 9.68735 4.4512 9.78602 4.46787C9.88468 4.48454 9.9796 4.50954 10.0708 4.54287L15.4785 6.43712L19.7543 4.78287C19.9076 4.72154 20.0558 4.7022 20.199 4.72487C20.342 4.74754 20.4738 4.79662 20.5943 4.87212C20.7148 4.94762 20.8089 5.04962 20.8768 5.17812C20.9446 5.30645 20.9785 5.4537 20.9785 5.61987V18.7614C20.9785 18.9644 20.9209 19.1428 20.8055 19.2966C20.69 19.4505 20.5336 19.5626 20.3363 19.6331L16.0613 21.0639C15.9676 21.0972 15.8728 21.1206 15.7768 21.1341C15.6808 21.1476 15.5811 21.1544 15.4778 21.1544C15.3744 21.1544 15.275 21.146 15.1795 21.1294C15.084 21.1127 14.9894 21.0877 14.8958 21.0544ZM14.7285 19.4256V7.72562L10.2285 6.15237V17.8524L14.7285 19.4256Z" fill="#1EB17B"/>
</g>
</svg>
