<svg width="25" height="25" viewBox="0 0 25 25" fill="none" xmlns="http://www.w3.org/2000/svg">
<g opacity="0.5">
<mask id="mask0_437_1472" style="mask-type:alpha" maskUnits="userSpaceOnUse" x="0" y="0" width="25" height="25">
<rect x="0.5" y="0.798828" width="24" height="24" fill="#D9D9D9"/>
</mask>
<g mask="url(#mask0_437_1472)">
<path d="M14.9173 21.0544L9.5 19.1601L5.22425 20.8144C5.07092 20.8757 4.92267 20.895 4.7795 20.8724C4.6365 20.8497 4.50475 20.8006 4.38425 20.7251C4.26375 20.6496 4.16958 20.5476 4.10175 20.4191C4.03392 20.2908 4 20.1435 4 19.9774V6.87887C4 6.67637 4.05292 6.49737 4.15875 6.34187C4.26442 6.1862 4.41283 6.07312 4.604 6.00262L8.90775 4.54287C8.99892 4.50954 9.09383 4.48454 9.1925 4.46787C9.29117 4.4512 9.39367 4.44287 9.5 4.44287C9.60633 4.44287 9.70883 4.4512 9.8075 4.46787C9.90617 4.48454 10.0011 4.50954 10.0923 4.54287L15.5 6.43712L19.7758 4.78287C19.9291 4.72154 20.0773 4.7022 20.2205 4.72487C20.3635 4.74754 20.4953 4.79662 20.6158 4.87212C20.7363 4.94762 20.8304 5.04962 20.8983 5.17812C20.9661 5.30645 21 5.4537 21 5.61987V18.7614C21 18.9644 20.9423 19.1428 20.827 19.2966C20.7115 19.4505 20.5551 19.5626 20.3577 19.6331L16.0828 21.0639C15.9891 21.0972 15.8942 21.1206 15.7983 21.1341C15.7023 21.1476 15.6026 21.1544 15.4992 21.1544C15.3959 21.1544 15.2965 21.146 15.201 21.1294C15.1055 21.1127 15.0109 21.0877 14.9173 21.0544ZM14.75 19.4256V7.72562L10.25 6.15237V17.8524L14.75 19.4256ZM16.25 19.4256L19.5 18.3486V6.49862L16.25 7.72562V19.4256ZM5.5 19.0986L8.75 17.8524V6.15237L5.5 7.24862V19.0986Z" fill="#2C2C2E"/>
</g>
</g>
</svg>
