<svg width="25" height="25" viewBox="0 0 25 25" fill="none" xmlns="http://www.w3.org/2000/svg">
<mask id="mask0_437_1489" style="mask-type:alpha" maskUnits="userSpaceOnUse" x="0" y="0" width="25" height="25">
<rect x="0.478516" y="0.798828" width="24" height="24" fill="#D9D9D9"/>
</mask>
<g mask="url(#mask0_437_1489)">
<path d="M17.9785 21.2988V7.29883H20.1708C20.6759 7.29883 21.1035 7.47383 21.4535 7.82383C21.8035 8.17383 21.9785 8.60141 21.9785 9.10658V19.4911C21.9785 19.9962 21.8035 20.4238 21.4535 20.7738C21.1035 21.1238 20.6759 21.2988 20.1708 21.2988H17.9785ZM10.4785 7.29883H14.4785V5.60658C14.4785 5.52958 14.4464 5.45908 14.3823 5.39508C14.3183 5.33091 14.2478 5.29883 14.1708 5.29883H10.7863C10.7093 5.29883 10.6388 5.33091 10.5748 5.39508C10.5106 5.45908 10.4785 5.52958 10.4785 5.60658V7.29883ZM8.47852 21.2988V7.29883H8.97852V5.60658C8.97852 5.10141 9.15352 4.67383 9.50352 4.32383C9.85352 3.97383 10.2811 3.79883 10.7863 3.79883H14.1708C14.6759 3.79883 15.1035 3.97383 15.4535 4.32383C15.8035 4.67383 15.9785 5.10141 15.9785 5.60658V7.29883H16.4785V21.2988H8.47852ZM4.78627 21.2988C4.2811 21.2988 3.85352 21.1238 3.50352 20.7738C3.15352 20.4238 2.97852 19.9962 2.97852 19.4911V9.10658C2.97852 8.60141 3.15352 8.17383 3.50352 7.82383C3.85352 7.47383 4.2811 7.29883 4.78627 7.29883H6.97852V21.2988H4.78627Z" fill="#1EB17B"/>
</g>
</svg>
