<svg width="25" height="25" viewBox="0 0 25 25" fill="none" xmlns="http://www.w3.org/2000/svg">
<g opacity="0.5">
<mask id="mask0_437_1486" style="mask-type:alpha" maskUnits="userSpaceOnUse" x="0" y="0" width="25" height="25">
<rect x="0.5" y="0.798828" width="24" height="24" fill="#D9D9D9"/>
</mask>
<g mask="url(#mask0_437_1486)">
<path d="M4.80775 21.2988C4.30908 21.2988 3.88308 21.1222 3.52975 20.7691C3.17658 20.4157 3 19.9897 3 19.4911V9.10658C3 8.60791 3.17658 8.18191 3.52975 7.82858C3.88308 7.47541 4.30908 7.29883 4.80775 7.29883H9V5.60658C9 5.10791 9.17658 4.682 9.52975 4.32883C9.88308 3.9755 10.3091 3.79883 10.8078 3.79883H14.1923C14.6909 3.79883 15.1169 3.9755 15.4703 4.32883C15.8234 4.682 16 5.10791 16 5.60658V7.29883H20.1923C20.6909 7.29883 21.1169 7.47541 21.4703 7.82858C21.8234 8.18191 22 8.60791 22 9.10658V19.4911C22 19.9897 21.8234 20.4157 21.4703 20.7691C21.1169 21.1222 20.6909 21.2988 20.1923 21.2988H4.80775ZM10.5 7.29883H14.5V5.60658C14.5 5.52958 14.4679 5.45908 14.4038 5.39508C14.3398 5.33091 14.2692 5.29883 14.1923 5.29883H10.8078C10.7308 5.29883 10.6603 5.33091 10.5963 5.39508C10.5321 5.45908 10.5 5.52958 10.5 5.60658V7.29883ZM7 8.79883H4.80775C4.73075 8.79883 4.66025 8.83091 4.59625 8.89508C4.53208 8.95908 4.5 9.02958 4.5 9.10658V19.4911C4.5 19.5681 4.53208 19.6386 4.59625 19.7026C4.66025 19.7667 4.73075 19.7988 4.80775 19.7988H7V8.79883ZM16.5 19.7988V8.79883H8.5V19.7988H16.5ZM18 8.79883V19.7988H20.1923C20.2693 19.7988 20.3398 19.7667 20.4038 19.7026C20.4679 19.6386 20.5 19.5681 20.5 19.4911V9.10658C20.5 9.02958 20.4679 8.95908 20.4038 8.89508C20.3398 8.83091 20.2693 8.79883 20.1923 8.79883H18Z" fill="#2C2C2E"/>
</g>
</g>
</svg>
