<svg width="32" height="36" viewBox="0 0 32 36" fill="none" xmlns="http://www.w3.org/2000/svg">
<g filter="url(#filter0_d_761_1897)">
<path d="M29.5 16.1499C29.5 23.6057 23.4558 29.6499 16 29.6499C8.54416 29.6499 2.5 23.6057 2.5 16.1499C2.5 8.69406 8.54416 2.6499 16 2.6499C23.4558 2.6499 29.5 8.69406 29.5 16.1499Z" fill="#63C9A4"/>
<path d="M12.1172 20.5312L16.1172 16.6719C16.5495 16.2396 16.8828 15.8854 17.1172 15.6094C17.3568 15.3281 17.5391 15.0521 17.6641 14.7812C17.7891 14.5052 17.8516 14.2135 17.8516 13.9062C17.8516 13.5625 17.7682 13.2604 17.6016 13C17.4349 12.7396 17.2031 12.5391 16.9062 12.3984C16.6146 12.2578 16.2839 12.1875 15.9141 12.1875C15.5286 12.1875 15.1901 12.2656 14.8984 12.4219C14.612 12.5729 14.3906 12.7917 14.2344 13.0781C14.0781 13.3594 14.0026 13.6875 14.0078 14.0625H12.0703C12.0651 13.3594 12.2266 12.7422 12.5547 12.2109C12.8828 11.6745 13.3385 11.2604 13.9219 10.9688C14.5104 10.6771 15.1797 10.5312 15.9297 10.5312C16.6901 10.5312 17.362 10.6719 17.9453 10.9531C18.5339 11.2344 18.9896 11.625 19.3125 12.125C19.6406 12.6198 19.8047 13.1823 19.8047 13.8125C19.8047 14.25 19.7188 14.6719 19.5469 15.0781C19.3802 15.4844 19.0938 15.9349 18.6875 16.4297C18.2812 16.9193 17.7057 17.5156 16.9609 18.2188L14.9453 20.2188V20.2969H19.9766V22H12.1172V20.5312Z" fill="white"/>
</g>
<defs>
<filter id="filter0_d_761_1897" x="-1.25" y="0.399902" width="34.5" height="40.5" filterUnits="userSpaceOnUse" color-interpolation-filters="sRGB">
<feFlood flood-opacity="0" result="BackgroundImageFix"/>
<feColorMatrix in="SourceAlpha" type="matrix" values="0 0 0 0 0 0 0 0 0 0 0 0 0 0 0 0 0 0 127 0" result="hardAlpha"/>
<feOffset dy="3"/>
<feGaussianBlur stdDeviation="1.125"/>
<feComposite in2="hardAlpha" operator="out"/>
<feColorMatrix type="matrix" values="0 0 0 0 0 0 0 0 0 0 0 0 0 0 0 0 0 0 0.1 0"/>
<feBlend mode="normal" in2="BackgroundImageFix" result="effect1_dropShadow_761_1897"/>
<feBlend mode="normal" in="SourceGraphic" in2="effect1_dropShadow_761_1897" result="shape"/>
</filter>
</defs>
</svg>
