<svg width="32" height="36" viewBox="0 0 32 36" fill="none" xmlns="http://www.w3.org/2000/svg">
<g filter="url(#filter0_d_761_1912)">
<path d="M29.5 16.1499C29.5 23.6057 23.4558 29.6499 16 29.6499C8.54416 29.6499 2.5 23.6057 2.5 16.1499C2.5 8.69406 8.54416 2.6499 16 2.6499C23.4558 2.6499 29.5 8.69406 29.5 16.1499Z" fill="#63C9A4"/>
<path d="M16.0156 22.1562C15.2708 22.1562 14.599 22.0182 14 21.7422C13.401 21.4661 12.9271 21.0859 12.5781 20.6016C12.2344 20.112 12.0521 19.5573 12.0312 18.9375H14.0156C14.0365 19.2396 14.1354 19.5104 14.3125 19.75C14.4948 19.9896 14.7344 20.1771 15.0312 20.3125C15.3333 20.4479 15.6615 20.5156 16.0156 20.5156C16.4323 20.5156 16.8047 20.4219 17.1328 20.2344C17.4661 20.0469 17.724 19.7891 17.9062 19.4609C18.0938 19.1276 18.1875 18.7552 18.1875 18.3438C18.1875 17.9167 18.0911 17.5365 17.8984 17.2031C17.7057 16.8646 17.4401 16.6016 17.1016 16.4141C16.763 16.2214 16.3802 16.125 15.9531 16.125C15.0573 16.1094 14.4323 16.4323 14.0781 17.0938H12.1875L12.875 10.6875H19.5625V12.3906H14.5469L14.2031 15.3906H14.3125C14.5365 15.1354 14.8438 14.9297 15.2344 14.7734C15.625 14.612 16.0469 14.5312 16.5 14.5312C17.1927 14.5312 17.8177 14.6927 18.375 15.0156C18.9323 15.3385 19.3672 15.7865 19.6797 16.3594C19.9974 16.9271 20.1562 17.5677 20.1562 18.2812C20.1562 19.026 19.9792 19.6927 19.625 20.2812C19.276 20.8698 18.7865 21.3307 18.1562 21.6641C17.5312 21.9922 16.8177 22.1562 16.0156 22.1562Z" fill="white"/>
</g>
<defs>
<filter id="filter0_d_761_1912" x="-1.25" y="0.399902" width="34.5" height="40.5" filterUnits="userSpaceOnUse" color-interpolation-filters="sRGB">
<feFlood flood-opacity="0" result="BackgroundImageFix"/>
<feColorMatrix in="SourceAlpha" type="matrix" values="0 0 0 0 0 0 0 0 0 0 0 0 0 0 0 0 0 0 127 0" result="hardAlpha"/>
<feOffset dy="3"/>
<feGaussianBlur stdDeviation="1.125"/>
<feComposite in2="hardAlpha" operator="out"/>
<feColorMatrix type="matrix" values="0 0 0 0 0 0 0 0 0 0 0 0 0 0 0 0 0 0 0.1 0"/>
<feBlend mode="normal" in2="BackgroundImageFix" result="effect1_dropShadow_761_1912"/>
<feBlend mode="normal" in="SourceGraphic" in2="effect1_dropShadow_761_1912" result="shape"/>
</filter>
</defs>
</svg>
