<svg width="54" height="62" viewBox="0 0 54 62" fill="none" xmlns="http://www.w3.org/2000/svg">
<g filter="url(#filter0_d_512_4273)">
<path d="M28.9053 52.8001C28.0585 54.2668 25.9415 54.2668 25.0948 52.8001L20.3316 44.5501C19.4848 43.0834 20.5433 41.2501 22.2369 41.2501L31.7632 41.2501C33.4567 41.2501 34.5152 43.0834 33.6684 44.5501L28.9053 52.8001Z" fill="white"/>
<mask id="path-2-outside-1_512_4273" maskUnits="userSpaceOnUse" x="3.19995" y="-0.699707" width="47" height="47" fill="black">
<rect fill="white" x="3.19995" y="-0.699707" width="47" height="47"/>
<path d="M46.7999 23.1003C46.7999 34.0355 37.9352 42.9003 27 42.9003C16.0647 42.9003 7.19995 34.0355 7.19995 23.1003C7.19995 12.1651 16.0647 3.30029 27 3.30029C37.9352 3.30029 46.7999 12.1651 46.7999 23.1003Z"/>
</mask>
<path d="M46.7999 23.1003C46.7999 34.0355 37.9352 42.9003 27 42.9003C16.0647 42.9003 7.19995 34.0355 7.19995 23.1003C7.19995 12.1651 16.0647 3.30029 27 3.30029C37.9352 3.30029 46.7999 12.1651 46.7999 23.1003Z" fill="#1EB17B"/>
<path d="M43.5 23.1003C43.5 32.213 36.1126 39.6003 27 39.6003V46.2003C39.7577 46.2003 50.0999 35.8581 50.0999 23.1003H43.5ZM27 39.6003C17.8873 39.6003 10.5 32.213 10.5 23.1003H3.89995C3.89995 35.8581 14.2422 46.2003 27 46.2003V39.6003ZM10.5 23.1003C10.5 13.9876 17.8873 6.60029 27 6.60029V0.000293493C14.2422 0.000293493 3.89995 10.3425 3.89995 23.1003H10.5ZM27 6.60029C36.1126 6.60029 43.5 13.9876 43.5 23.1003H50.0999C50.0999 10.3425 39.7577 0.000293493 27 0.000293493V6.60029Z" fill="white" mask="url(#path-2-outside-1_512_4273)"/>
<path d="M26.9883 32.2344C25.793 32.2344 24.7227 32.0312 23.7773 31.625C22.832 31.2188 22.0898 30.6523 21.5508 29.9258C21.0117 29.1914 20.7305 28.3516 20.707 27.4062H23.7773C23.8086 27.8516 23.9648 28.2461 24.2461 28.5898C24.5352 28.9258 24.918 29.1875 25.3945 29.375C25.8711 29.5625 26.4023 29.6562 26.9883 29.6562C27.6055 29.6562 28.1562 29.5508 28.6406 29.3398C29.1328 29.1211 29.5156 28.8203 29.7891 28.4375C30.0625 28.0547 30.1992 27.6172 30.1992 27.125C30.1992 26.6172 30.0586 26.1641 29.7773 25.7656C29.4961 25.3672 29.0898 25.0586 28.5586 24.8398C28.0273 24.6133 27.4023 24.5 26.6836 24.5H25.1602V22.1562H26.6836C27.2773 22.1562 27.8047 22.0547 28.2656 21.8516C28.7344 21.6406 29.0977 21.3477 29.3555 20.9727C29.6133 20.5898 29.7383 20.1562 29.7305 19.6719C29.7383 19.2031 29.6289 18.7891 29.4023 18.4297C29.1836 18.0625 28.8672 17.7812 28.4531 17.5859C28.0391 17.3828 27.5586 17.2812 27.0117 17.2812C26.4805 17.2812 25.9844 17.3789 25.5234 17.5742C25.0703 17.7617 24.7031 18.0312 24.4219 18.3828C24.1484 18.7344 24.0039 19.1406 23.9883 19.6016H21.0586C21.082 18.6641 21.3555 17.832 21.8789 17.1055C22.4102 16.3789 23.125 15.8125 24.0234 15.4062C24.9297 15 25.9336 14.7969 27.0352 14.7969C28.1523 14.7969 29.1406 15.0078 30 15.4297C30.8594 15.8438 31.5234 16.4102 31.9922 17.1289C32.4609 17.8477 32.6914 18.6406 32.6836 19.5078C32.6914 20.1328 32.5664 20.6992 32.3086 21.207C32.0508 21.7148 31.6875 22.1367 31.2188 22.4727C30.75 22.8086 30.207 23.0391 29.5898 23.1641V23.3047C30.3789 23.4141 31.0547 23.6484 31.6172 24.0078C32.1797 24.3594 32.6055 24.8164 32.8945 25.3789C33.1836 25.9414 33.3242 26.5781 33.3164 27.2891C33.3242 28.2266 33.0547 29.0742 32.5078 29.832C31.9688 30.582 31.2148 31.1719 30.2461 31.6016C29.2852 32.0234 28.1992 32.2344 26.9883 32.2344Z" fill="white"/>
</g>
<defs>
<filter id="filter0_d_512_4273" x="0.599903" y="0" width="52.8001" height="61.5999" filterUnits="userSpaceOnUse" color-interpolation-filters="sRGB">
<feFlood flood-opacity="0" result="BackgroundImageFix"/>
<feColorMatrix in="SourceAlpha" type="matrix" values="0 0 0 0 0 0 0 0 0 0 0 0 0 0 0 0 0 0 127 0" result="hardAlpha"/>
<feOffset dy="4.4"/>
<feGaussianBlur stdDeviation="1.65"/>
<feComposite in2="hardAlpha" operator="out"/>
<feColorMatrix type="matrix" values="0 0 0 0 0 0 0 0 0 0 0 0 0 0 0 0 0 0 0.1 0"/>
<feBlend mode="normal" in2="BackgroundImageFix" result="effect1_dropShadow_512_4273"/>
<feBlend mode="normal" in="SourceGraphic" in2="effect1_dropShadow_512_4273" result="shape"/>
</filter>
</defs>
</svg>
