<svg width="32" height="36" viewBox="0 0 32 36" fill="none" xmlns="http://www.w3.org/2000/svg">
<g filter="url(#filter0_d_761_1902)">
<path d="M29.5 15.75C29.5 23.2058 23.4558 29.25 16 29.25C8.54416 29.25 2.5 23.2058 2.5 15.75C2.5 8.29416 8.54416 2.25 16 2.25C23.4558 2.25 29.5 8.29416 29.5 15.75Z" fill="#63C9A4"/>
<path d="M15.4922 22.1562C14.6953 22.1562 13.9818 22.0208 13.3516 21.75C12.7214 21.4792 12.2266 21.1016 11.8672 20.6172C11.5078 20.1276 11.3203 19.5677 11.3047 18.9375H13.3516C13.3724 19.2344 13.4766 19.4974 13.6641 19.7266C13.8568 19.9505 14.112 20.125 14.4297 20.25C14.7474 20.375 15.1016 20.4375 15.4922 20.4375C15.9036 20.4375 16.2708 20.3672 16.5938 20.2266C16.9219 20.0807 17.1771 19.8802 17.3594 19.625C17.5417 19.3698 17.6328 19.0781 17.6328 18.75C17.6328 18.4115 17.5391 18.1094 17.3516 17.8438C17.1641 17.5781 16.8932 17.3724 16.5391 17.2266C16.1849 17.0755 15.7682 17 15.2891 17H14.2734V15.4375H15.2891C15.6849 15.4375 16.0365 15.3698 16.3438 15.2344C16.6562 15.0938 16.8984 14.8984 17.0703 14.6484C17.2422 14.3932 17.3255 14.1042 17.3203 13.7812C17.3255 13.4688 17.2526 13.1927 17.1016 12.9531C16.9557 12.7083 16.7448 12.5208 16.4688 12.3906C16.1927 12.2552 15.8724 12.1875 15.5078 12.1875C15.1536 12.1875 14.8229 12.2526 14.5156 12.3828C14.2135 12.5078 13.9688 12.6875 13.7812 12.9219C13.599 13.1562 13.5026 13.4271 13.4922 13.7344H11.5391C11.5547 13.1094 11.737 12.5547 12.0859 12.0703C12.4401 11.5859 12.9167 11.2083 13.5156 10.9375C14.1198 10.6667 14.7891 10.5312 15.5234 10.5312C16.2682 10.5312 16.9271 10.6719 17.5 10.9531C18.0729 11.2292 18.5156 11.6068 18.8281 12.0859C19.1406 12.5651 19.2943 13.0938 19.2891 13.6719C19.2943 14.0885 19.2109 14.4661 19.0391 14.8047C18.8672 15.1432 18.625 15.4245 18.3125 15.6484C18 15.8724 17.638 16.026 17.2266 16.1094V16.2031C17.7526 16.276 18.2031 16.4323 18.5781 16.6719C18.9531 16.9062 19.237 17.2109 19.4297 17.5859C19.6224 17.9609 19.7161 18.3854 19.7109 18.8594C19.7161 19.4844 19.5365 20.0495 19.1719 20.5547C18.8125 21.0547 18.3099 21.4479 17.6641 21.7344C17.0234 22.0156 16.2995 22.1562 15.4922 22.1562Z" fill="white"/>
</g>
<defs>
<filter id="filter0_d_761_1902" x="-1.25" y="0" width="34.5" height="40.5" filterUnits="userSpaceOnUse" color-interpolation-filters="sRGB">
<feFlood flood-opacity="0" result="BackgroundImageFix"/>
<feColorMatrix in="SourceAlpha" type="matrix" values="0 0 0 0 0 0 0 0 0 0 0 0 0 0 0 0 0 0 127 0" result="hardAlpha"/>
<feOffset dy="3"/>
<feGaussianBlur stdDeviation="1.125"/>
<feComposite in2="hardAlpha" operator="out"/>
<feColorMatrix type="matrix" values="0 0 0 0 0 0 0 0 0 0 0 0 0 0 0 0 0 0 0.1 0"/>
<feBlend mode="normal" in2="BackgroundImageFix" result="effect1_dropShadow_761_1902"/>
<feBlend mode="normal" in="SourceGraphic" in2="effect1_dropShadow_761_1902" result="shape"/>
</filter>
</defs>
</svg>
