<svg width="54" height="62" viewBox="0 0 54 62" fill="none" xmlns="http://www.w3.org/2000/svg">
<g filter="url(#filter0_d_512_3466)">
<path d="M28.9053 52.8001C28.0585 54.2668 25.9415 54.2668 25.0948 52.8001L20.3316 44.5501C19.4848 43.0834 20.5433 41.2501 22.2369 41.2501L31.7632 41.2501C33.4567 41.2501 34.5152 43.0834 33.6684 44.5501L28.9053 52.8001Z" fill="white"/>
<mask id="path-2-outside-1_512_3466" maskUnits="userSpaceOnUse" x="3.19995" y="-0.699707" width="47" height="47" fill="black">
<rect fill="white" x="3.19995" y="-0.699707" width="47" height="47"/>
<path d="M46.7999 23.1003C46.7999 34.0355 37.9352 42.9003 27 42.9003C16.0647 42.9003 7.19995 34.0355 7.19995 23.1003C7.19995 12.1651 16.0647 3.30029 27 3.30029C37.9352 3.30029 46.7999 12.1651 46.7999 23.1003Z"/>
</mask>
<path d="M46.7999 23.1003C46.7999 34.0355 37.9352 42.9003 27 42.9003C16.0647 42.9003 7.19995 34.0355 7.19995 23.1003C7.19995 12.1651 16.0647 3.30029 27 3.30029C37.9352 3.30029 46.7999 12.1651 46.7999 23.1003Z" fill="#1EB17B"/>
<path d="M43.5 23.1003C43.5 32.213 36.1126 39.6003 27 39.6003V46.2003C39.7577 46.2003 50.0999 35.8581 50.0999 23.1003H43.5ZM27 39.6003C17.8873 39.6003 10.5 32.213 10.5 23.1003H3.89995C3.89995 35.8581 14.2422 46.2003 27 46.2003V39.6003ZM10.5 23.1003C10.5 13.9876 17.8873 6.60029 27 6.60029V0.000293493C14.2422 0.000293493 3.89995 10.3425 3.89995 23.1003H10.5ZM27 6.60029C36.1126 6.60029 43.5 13.9876 43.5 23.1003H50.0999C50.0999 10.3425 39.7577 0.000293493 27 0.000293493V6.60029Z" fill="white" mask="url(#path-2-outside-1_512_3466)"/>
<path d="M29.7891 32H26.7188V18.0078H26.625L22.6641 20.5391V17.75L26.8594 15.0312H29.7891V32Z" fill="white"/>
</g>
<defs>
<filter id="filter0_d_512_3466" x="0.599903" y="0" width="52.8001" height="61.5999" filterUnits="userSpaceOnUse" color-interpolation-filters="sRGB">
<feFlood flood-opacity="0" result="BackgroundImageFix"/>
<feColorMatrix in="SourceAlpha" type="matrix" values="0 0 0 0 0 0 0 0 0 0 0 0 0 0 0 0 0 0 127 0" result="hardAlpha"/>
<feOffset dy="4.4"/>
<feGaussianBlur stdDeviation="1.65"/>
<feComposite in2="hardAlpha" operator="out"/>
<feColorMatrix type="matrix" values="0 0 0 0 0 0 0 0 0 0 0 0 0 0 0 0 0 0 0.1 0"/>
<feBlend mode="normal" in2="BackgroundImageFix" result="effect1_dropShadow_512_3466"/>
<feBlend mode="normal" in="SourceGraphic" in2="effect1_dropShadow_512_3466" result="shape"/>
</filter>
</defs>
</svg>
