<svg width="54" height="62" viewBox="0 0 54 62" fill="none" xmlns="http://www.w3.org/2000/svg">
<g filter="url(#filter0_d_512_4293)">
<path d="M28.9053 52.8001C28.0585 54.2668 25.9415 54.2668 25.0948 52.8001L20.3316 44.5501C19.4848 43.0834 20.5433 41.2501 22.2369 41.2501L31.7632 41.2501C33.4567 41.2501 34.5152 43.0834 33.6684 44.5501L28.9053 52.8001Z" fill="white"/>
<mask id="path-2-outside-1_512_4293" maskUnits="userSpaceOnUse" x="3.19995" y="-0.699707" width="47" height="47" fill="black">
<rect fill="white" x="3.19995" y="-0.699707" width="47" height="47"/>
<path d="M46.7999 23.1003C46.7999 34.0355 37.9352 42.9003 27 42.9003C16.0647 42.9003 7.19995 34.0355 7.19995 23.1003C7.19995 12.1651 16.0647 3.30029 27 3.30029C37.9352 3.30029 46.7999 12.1651 46.7999 23.1003Z"/>
</mask>
<path d="M46.7999 23.1003C46.7999 34.0355 37.9352 42.9003 27 42.9003C16.0647 42.9003 7.19995 34.0355 7.19995 23.1003C7.19995 12.1651 16.0647 3.30029 27 3.30029C37.9352 3.30029 46.7999 12.1651 46.7999 23.1003Z" fill="#1EB17B"/>
<path d="M43.5 23.1003C43.5 32.213 36.1126 39.6003 27 39.6003V46.2003C39.7577 46.2003 50.0999 35.8581 50.0999 23.1003H43.5ZM27 39.6003C17.8873 39.6003 10.5 32.213 10.5 23.1003H3.89995C3.89995 35.8581 14.2422 46.2003 27 46.2003V39.6003ZM10.5 23.1003C10.5 13.9876 17.8873 6.60029 27 6.60029V0.000293255C14.2422 0.000293255 3.89995 10.3425 3.89995 23.1003H10.5ZM27 6.60029C36.1126 6.60029 43.5 13.9876 43.5 23.1003H50.0999C50.0999 10.3425 39.7577 0.000293255 27 0.000293255V6.60029Z" fill="white" mask="url(#path-2-outside-1_512_4293)"/>
<path d="M26.5234 32.2344C25.4062 32.2344 24.3984 32.0273 23.5 31.6133C22.6016 31.1992 21.8906 30.6289 21.3672 29.9023C20.8516 29.168 20.5781 28.3359 20.5469 27.4062H23.5234C23.5547 27.8594 23.7031 28.2656 23.9688 28.625C24.2422 28.9844 24.6016 29.2656 25.0469 29.4688C25.5 29.6719 25.9922 29.7734 26.5234 29.7734C27.1484 29.7734 27.707 29.6328 28.1992 29.3516C28.6992 29.0703 29.0859 28.6836 29.3594 28.1914C29.6406 27.6914 29.7812 27.1328 29.7812 26.5156C29.7812 25.875 29.6367 25.3047 29.3477 24.8047C29.0586 24.2969 28.6602 23.9023 28.1523 23.6211C27.6445 23.332 27.0703 23.1875 26.4297 23.1875C25.0859 23.1641 24.1484 23.6484 23.6172 24.6406H20.7812L21.8125 15.0312H31.8438V17.5859H24.3203L23.8047 22.0859H23.9688C24.3047 21.7031 24.7656 21.3945 25.3516 21.1602C25.9375 20.918 26.5703 20.7969 27.25 20.7969C28.2891 20.7969 29.2266 21.0391 30.0625 21.5234C30.8984 22.0078 31.5508 22.6797 32.0195 23.5391C32.4961 24.3906 32.7344 25.3516 32.7344 26.4219C32.7344 27.5391 32.4688 28.5391 31.9375 29.4219C31.4141 30.3047 30.6797 30.9961 29.7344 31.4961C28.7969 31.9883 27.7266 32.2344 26.5234 32.2344Z" fill="white"/>
</g>
<defs>
<filter id="filter0_d_512_4293" x="0.599903" y="0" width="52.8001" height="61.5999" filterUnits="userSpaceOnUse" color-interpolation-filters="sRGB">
<feFlood flood-opacity="0" result="BackgroundImageFix"/>
<feColorMatrix in="SourceAlpha" type="matrix" values="0 0 0 0 0 0 0 0 0 0 0 0 0 0 0 0 0 0 127 0" result="hardAlpha"/>
<feOffset dy="4.4"/>
<feGaussianBlur stdDeviation="1.65"/>
<feComposite in2="hardAlpha" operator="out"/>
<feColorMatrix type="matrix" values="0 0 0 0 0 0 0 0 0 0 0 0 0 0 0 0 0 0 0.1 0"/>
<feBlend mode="normal" in2="BackgroundImageFix" result="effect1_dropShadow_512_4293"/>
<feBlend mode="normal" in="SourceGraphic" in2="effect1_dropShadow_512_4293" result="shape"/>
</filter>
</defs>
</svg>
