<svg width="54" height="62" viewBox="0 0 54 62" fill="none" xmlns="http://www.w3.org/2000/svg">
<g filter="url(#filter0_d_512_4263)">
<path d="M28.9053 52.8001C28.0585 54.2668 25.9415 54.2668 25.0948 52.8001L20.3316 44.5501C19.4848 43.0834 20.5433 41.2501 22.2369 41.2501L31.7632 41.2501C33.4567 41.2501 34.5152 43.0834 33.6684 44.5501L28.9053 52.8001Z" fill="white"/>
<mask id="path-2-outside-1_512_4263" maskUnits="userSpaceOnUse" x="3.19995" y="-0.699707" width="47" height="47" fill="black">
<rect fill="white" x="3.19995" y="-0.699707" width="47" height="47"/>
<path d="M46.7999 23.1003C46.7999 34.0355 37.9352 42.9003 27 42.9003C16.0647 42.9003 7.19995 34.0355 7.19995 23.1003C7.19995 12.1651 16.0647 3.30029 27 3.30029C37.9352 3.30029 46.7999 12.1651 46.7999 23.1003Z"/>
</mask>
<path d="M46.7999 23.1003C46.7999 34.0355 37.9352 42.9003 27 42.9003C16.0647 42.9003 7.19995 34.0355 7.19995 23.1003C7.19995 12.1651 16.0647 3.30029 27 3.30029C37.9352 3.30029 46.7999 12.1651 46.7999 23.1003Z" fill="#1EB17B"/>
<path d="M43.5 23.1003C43.5 32.213 36.1126 39.6003 27 39.6003V46.2003C39.7577 46.2003 50.0999 35.8581 50.0999 23.1003H43.5ZM27 39.6003C17.8873 39.6003 10.5 32.213 10.5 23.1003H3.89995C3.89995 35.8581 14.2422 46.2003 27 46.2003V39.6003ZM10.5 23.1003C10.5 13.9876 17.8873 6.60029 27 6.60029V0.000293493C14.2422 0.000293493 3.89995 10.3425 3.89995 23.1003H10.5ZM27 6.60029C36.1126 6.60029 43.5 13.9876 43.5 23.1003H50.0999C50.0999 10.3425 39.7577 0.000293493 27 0.000293493V6.60029Z" fill="white" mask="url(#path-2-outside-1_512_4263)"/>
<path d="M20.6758 29.7969L26.6758 24.0078C27.3242 23.3594 27.8242 22.8281 28.1758 22.4141C28.5352 21.9922 28.8086 21.5781 28.9961 21.1719C29.1836 20.7578 29.2773 20.3203 29.2773 19.8594C29.2773 19.3438 29.1523 18.8906 28.9023 18.5C28.6523 18.1094 28.3047 17.8086 27.8594 17.5977C27.4219 17.3867 26.9258 17.2812 26.3711 17.2812C25.793 17.2812 25.2852 17.3984 24.8477 17.6328C24.418 17.8594 24.0859 18.1875 23.8516 18.6172C23.6172 19.0391 23.5039 19.5312 23.5117 20.0938H20.6055C20.5977 19.0391 20.8398 18.1133 21.332 17.3164C21.8242 16.5117 22.5078 15.8906 23.3828 15.4531C24.2656 15.0156 25.2695 14.7969 26.3945 14.7969C27.5352 14.7969 28.543 15.0078 29.418 15.4297C30.3008 15.8516 30.9844 16.4375 31.4688 17.1875C31.9609 17.9297 32.207 18.7734 32.207 19.7188C32.207 20.375 32.0781 21.0078 31.8203 21.6172C31.5703 22.2266 31.1406 22.9023 30.5312 23.6445C29.9219 24.3789 29.0586 25.2734 27.9414 26.3281L24.918 29.3281V29.4453H32.4648V32H20.6758V29.7969Z" fill="white"/>
</g>
<defs>
<filter id="filter0_d_512_4263" x="0.599903" y="0" width="52.8001" height="61.5999" filterUnits="userSpaceOnUse" color-interpolation-filters="sRGB">
<feFlood flood-opacity="0" result="BackgroundImageFix"/>
<feColorMatrix in="SourceAlpha" type="matrix" values="0 0 0 0 0 0 0 0 0 0 0 0 0 0 0 0 0 0 127 0" result="hardAlpha"/>
<feOffset dy="4.4"/>
<feGaussianBlur stdDeviation="1.65"/>
<feComposite in2="hardAlpha" operator="out"/>
<feColorMatrix type="matrix" values="0 0 0 0 0 0 0 0 0 0 0 0 0 0 0 0 0 0 0.1 0"/>
<feBlend mode="normal" in2="BackgroundImageFix" result="effect1_dropShadow_512_4263"/>
<feBlend mode="normal" in="SourceGraphic" in2="effect1_dropShadow_512_4263" result="shape"/>
</filter>
</defs>
</svg>
